<?xml version="1.0" encoding="utf-8"?>
<!-- Generator: Adobe Illustrator 18.0.0, SVG Export Plug-In . SVG Version: 6.00 Build 0)  -->
<!DOCTYPE svg PUBLIC "-//W3C//DTD SVG 1.1//EN" "http://www.w3.org/Graphics/SVG/1.1/DTD/svg11.dtd">
<svg version="1.1" id="Layer_1" xmlns="http://www.w3.org/2000/svg" xmlns:xlink="http://www.w3.org/1999/xlink" x="0px" y="0px"
	 viewBox="0 0 612 792" enable-background="new 0 0 612 792" xml:space="preserve">
<g>
	<g>
		
			<linearGradient id="SVGID_1_" gradientUnits="userSpaceOnUse" x1="375.1891" y1="407.0553" x2="430.1439" y2="407.0553" gradientTransform="matrix(-1 0 0 1 618.334 0)">
			<stop  offset="0" style="stop-color:#1FACE3"/>
			<stop  offset="1" style="stop-color:#0681AF"/>
		</linearGradient>
		<polygon fill="url(#SVGID_1_)" points="243.1,420.3 236,393.8 233.1,395.4 243,420.3 		"/>
		
			<linearGradient id="SVGID_2_" gradientUnits="userSpaceOnUse" x1="388.8194" y1="388.5991" x2="391.6668" y2="422.4829" gradientTransform="matrix(-1 0 0 1 618.334 0)">
			<stop  offset="0" style="stop-color:#1FACE3"/>
			<stop  offset="1" style="stop-color:#0681AF"/>
		</linearGradient>
		<polygon fill="url(#SVGID_2_)" points="233.1,395.4 230,387.8 225.1,391.6 228.9,397.7 		"/>
		
			<linearGradient id="SVGID_3_" gradientUnits="userSpaceOnUse" x1="380.6811" y1="389.2831" x2="382.9386" y2="416.1471" gradientTransform="matrix(-1 0 0 1 618.334 0)">
			<stop  offset="0" style="stop-color:#1FACE3"/>
			<stop  offset="1" style="stop-color:#015079"/>
		</linearGradient>
		<polygon fill="url(#SVGID_3_)" points="242.9,420.1 243,420.3 233.1,395.4 228.9,397.7 		"/>
		
			<linearGradient id="SVGID_4_" gradientUnits="userSpaceOnUse" x1="401.672" y1="375.4782" x2="402.5262" y2="420.7513" gradientTransform="matrix(-1 0 0 1 618.334 0)">
			<stop  offset="0.1101" style="stop-color:#2BBDE5"/>
			<stop  offset="1" style="stop-color:#0681AF"/>
		</linearGradient>
		<polygon fill="url(#SVGID_4_)" points="225.1,391.6 214.1,373.9 207.7,385.4 218.9,396.5 		"/>
		
			<linearGradient id="SVGID_5_" gradientUnits="userSpaceOnUse" x1="394.0025" y1="375.622" x2="394.6703" y2="411.0187" gradientTransform="matrix(-1 0 0 1 618.334 0)">
			<stop  offset="0" style="stop-color:#1FACE3"/>
			<stop  offset="1" style="stop-color:#035E81"/>
		</linearGradient>
		<polygon fill="url(#SVGID_5_)" points="223.3,400.9 228.9,397.7 225.1,391.6 218.9,396.5 		"/>
		
			<linearGradient id="SVGID_6_" gradientUnits="userSpaceOnUse" x1="384.5612" y1="375.8008" x2="385.3746" y2="418.9132" gradientTransform="matrix(-1 0 0 1 618.334 0)">
			<stop  offset="0" style="stop-color:#1FACE3"/>
			<stop  offset="0.9345" style="stop-color:#0A1F41"/>
		</linearGradient>
		<polyline fill="url(#SVGID_6_)" points="223.3,400.9 228.9,397.7 242.9,420.1 223.3,400.9 		"/>
		<linearGradient id="SVGID_7_" gradientUnits="userSpaceOnUse" x1="205.165" y1="381.2752" x2="191.892" y2="421.0943">
			<stop  offset="0" style="stop-color:#1FACE3"/>
			<stop  offset="1" style="stop-color:#086A8D"/>
		</linearGradient>
		<polygon fill="url(#SVGID_7_)" points="207.7,385.4 203.3,381.1 188.2,420.5 188.2,420.5 		"/>
		
			<linearGradient id="SVGID_8_" gradientUnits="userSpaceOnUse" x1="383.7909" y1="429.2009" x2="430.193" y2="395.8938" gradientTransform="matrix(-1 0 0 1 618.334 0)">
			<stop  offset="0" style="stop-color:#1FACE3"/>
			<stop  offset="0.8614" style="stop-color:#035E81"/>
		</linearGradient>
		<polygon fill="url(#SVGID_8_)" points="188.2,420.5 218.9,396.5 207.7,385.4 188.2,420.5 		"/>
		
			<linearGradient id="SVGID_9_" gradientUnits="userSpaceOnUse" x1="384.5075" y1="430.2024" x2="420.168" y2="404.6056" gradientTransform="matrix(-1 0 0 1 618.334 0)">
			<stop  offset="0" style="stop-color:#1FACE3"/>
			<stop  offset="1" style="stop-color:#0A1F41"/>
		</linearGradient>
		<polygon fill="url(#SVGID_9_)" points="223.3,400.9 218.9,396.5 188.2,420.5 189,420 		"/>
	</g>
	<g>
		<path fill="#FFFFFF" d="M267.1,387.1v2.7h-6.4v3h6.1v2.7h-6.1v5.4h-3.1v-13.8H267.1z"/>
		<path fill="#FFFFFF" d="M287.2,399c-1.4,1.4-3.1,2-5.2,2c-2,0-3.8-0.7-5.2-2c-1.4-1.4-2.1-3.1-2.1-5.1c0-2,0.7-3.7,2.1-5.1
			c1.4-1.4,3.1-2,5.2-2c2,0,3.8,0.7,5.2,2c1.4,1.4,2.1,3.1,2.1,5.1C289.3,395.9,288.6,397.6,287.2,399z M286.1,393.9
			c0-1.2-0.4-2.3-1.2-3.1c-0.8-0.9-1.8-1.3-2.9-1.3c-1.2,0-2.1,0.4-2.9,1.3c-0.8,0.9-1.2,1.9-1.2,3.1c0,1.2,0.4,2.3,1.2,3.1
			c0.8,0.9,1.8,1.3,2.9,1.3c1.2,0,2.1-0.4,2.9-1.3C285.8,396.2,286.1,395.1,286.1,393.9z"/>
		<path fill="#FFFFFF" d="M301.5,397.3c0.5,0.6,1.2,1,2.1,1s1.6-0.3,2.1-1c0.5-0.6,0.8-1.5,0.8-2.6v-7.6h3.1v7.7
			c0,2-0.6,3.5-1.7,4.6c-1.1,1.1-2.5,1.6-4.2,1.6c-1.7,0-3.1-0.5-4.3-1.6c-1.1-1.1-1.7-2.6-1.7-4.6v-7.7h3.1v7.6
			C300.7,395.8,301,396.7,301.5,397.3z"/>
		<path fill="#FFFFFF" d="M329.8,391.7c0,2.2-0.9,3.6-2.6,4.3l3.5,4.9h-3.8l-3.1-4.4h-2.1v4.4h-3.1v-13.8h5.2c2.1,0,3.7,0.4,4.6,1.1
			C329.3,388.9,329.8,390.1,329.8,391.7z M326,393.3c0.4-0.3,0.6-0.9,0.6-1.6c0-0.7-0.2-1.3-0.6-1.5c-0.4-0.3-1.1-0.4-2.1-0.4h-2.3
			v4.1h2.3C324.9,393.8,325.7,393.6,326,393.3z"/>
		<path fill="#FFFFFF" d="M348.3,388.3c1,0.8,1.5,2.1,1.5,3.8c0,1.7-0.5,3-1.5,3.7c-1,0.8-2.5,1.2-4.5,1.2h-1.8v3.8h-3.1v-13.8h4.9
			C345.8,387.1,347.4,387.5,348.3,388.3z M346.1,393.7c0.4-0.4,0.6-1,0.6-1.8s-0.2-1.4-0.7-1.7c-0.5-0.3-1.2-0.5-2.2-0.5h-1.8v4.6
			h2.1C345,394.4,345.7,394.2,346.1,393.7z"/>
		<path fill="#FFFFFF" d="M369.7,399c-1.4,1.4-3.1,2-5.2,2c-2,0-3.8-0.7-5.2-2c-1.4-1.4-2.1-3.1-2.1-5.1c0-2,0.7-3.7,2.1-5.1
			c1.4-1.4,3.1-2,5.2-2c2,0,3.8,0.7,5.2,2c1.4,1.4,2.1,3.1,2.1,5.1C371.8,395.9,371.1,397.6,369.7,399z M368.7,393.9
			c0-1.2-0.4-2.3-1.2-3.1c-0.8-0.9-1.8-1.3-2.9-1.3c-1.2,0-2.1,0.4-2.9,1.3c-0.8,0.9-1.2,1.9-1.2,3.1c0,1.2,0.4,2.3,1.2,3.1
			c0.8,0.9,1.8,1.3,2.9,1.3c1.2,0,2.1-0.4,2.9-1.3C368.3,396.2,368.7,395.1,368.7,393.9z"/>
		<path fill="#FFFFFF" d="M380.3,387.1h3.1v13.8h-3.1V387.1z"/>
		<path fill="#FFFFFF" d="M402.4,387.1h3.1v13.8h-3.1l-6.6-8.6v8.6h-3.1v-13.8h2.9l6.8,8.9V387.1z"/>
		<path fill="#FFFFFF" d="M420.6,389.7v11.1h-3.1v-11.1h-3.9v-2.7h10.9v2.7H420.6z"/>
	</g>
	<g>
		<path fill="#FFFFFF" d="M338.7,406.7h4.7v1h-3.6v1.7h3.2v1h-3.2v1.7h3.6v1h-4.8V406.7z"/>
		<path fill="#FFFFFF" d="M354.3,406.7h1l3.4,4.4v-4.4h1.1v6.3h-0.9l-3.5-4.5v4.5h-1.1V406.7z"/>
		<path fill="#FFFFFF" d="M371.5,406.7h4.7v1h-3.6v1.7h3.2v1h-3.2v1.7h3.6v1h-4.8V406.7z"/>
		<path fill="#FFFFFF" d="M387.6,406.7h2.8c0.8,0,1.4,0.2,1.8,0.6c0.3,0.3,0.5,0.8,0.5,1.4v0c0,1-0.6,1.7-1.5,1.9l1.7,2.4h-1.3
			l-1.6-2.2h-1.4v2.2h-1.1V406.7z M390.3,409.9c0.8,0,1.3-0.4,1.3-1.1v0c0-0.7-0.5-1.1-1.3-1.1h-1.6v2.1H390.3z"/>
		<path fill="#FFFFFF" d="M402.4,409.9L402.4,409.9c0-1.8,1.4-3.3,3.3-3.3c1.1,0,1.8,0.3,2.4,0.9l-0.7,0.8c-0.5-0.4-1-0.7-1.8-0.7
			c-1.2,0-2.1,1-2.1,2.2v0c0,1.3,0.9,2.3,2.2,2.3c0.6,0,1.1-0.2,1.5-0.5v-1.2h-1.6v-1h2.7v2.7c-0.6,0.5-1.5,1-2.6,1
			C403.7,413.2,402.4,411.8,402.4,409.9z"/>
		<path fill="#FFFFFF" d="M420,410.6l-2.5-3.8h1.3l1.8,2.8l1.8-2.8h1.3l-2.5,3.8v2.5H420V410.6z"/>
	</g>
</g>
<rect id="_x3C_Slice_x3E_" x="187" y="372" fill="none" width="245" height="51"/>
</svg>
