<?xml version="1.0" encoding="UTF-8" standalone="no"?>
<svg width="38px" height="27px" viewBox="0 0 38 27" version="1.1" xmlns="http://www.w3.org/2000/svg" xmlns:xlink="http://www.w3.org/1999/xlink">
    <!-- Generator: Sketch 3.8.3 (29802) - http://www.bohemiancoding.com/sketch -->
    <title>Group</title>
    <desc>Created with Sketch.</desc>
    <defs></defs>
    <g id="Page-1" stroke="none" stroke-width="1" fill="none" fill-rule="evenodd">
        <g id="icon_email_blu-01" transform="translate(1.000000, 0.000000)" stroke-width="1.5" stroke="#FFFFFF">
            <g id="Group">
                <path d="M35.5,23.1 C35.5,24.8 34.1,26.1 32.5,26.1 L3.5,26.1 C1.8,26.1 0.5,24.7 0.5,23.1 L0.5,3.8 C0.5,2.1 1.9,0.8 3.5,0.8 L32.5,0.8 C34.2,0.8 35.5,2.2 35.5,3.8 L35.5,23.1 L35.5,23.1 Z" id="Shape"></path>
                <path d="M5.5,5.3 L14.9,15.5 C16.8,17.6 19.9,17.6 21.8,15.5 L31.1,5.3" id="Shape"></path>
                <path d="M13.7,14.4 L5.5,21.9" id="Shape"></path>
                <path d="M22.9,14.4 L31.1,21.9" id="Shape"></path>
            </g>
        </g>
    </g>
</svg>