<?xml version="1.0" encoding="utf-8"?>
<!-- Generator: Adobe Illustrator 18.0.0, SVG Export Plug-In . SVG Version: 6.00 Build 0)  -->
<!DOCTYPE svg PUBLIC "-//W3C//DTD SVG 1.1//EN" "http://www.w3.org/Graphics/SVG/1.1/DTD/svg11.dtd">
<svg version="1.1" id="Layer_1" xmlns="http://www.w3.org/2000/svg" xmlns:xlink="http://www.w3.org/1999/xlink" x="0px" y="0px"
	 viewBox="0 0 45 45" enable-background="new 0 0 45 45" xml:space="preserve">
<g>
	<path fill="none" stroke="#0BA3DD" stroke-width="1.5" stroke-linecap="round" stroke-linejoin="round" stroke-miterlimit="10" d="
		M19.5,26.4c0,0-2.1-0.7-2.1-4.2c-1.1,0-1.1-2.8,0-2.8c0-0.5-2.1-5.6,1.4-4.9c0.7-2.8,8.3-2.8,9,0c0.5,1.9-0.7,4.5-0.7,4.9
		c1.1,0,1.1,2.8,0,2.8c0,3.5-2.1,4.2-2.1,4.2v3.5c3.4,1.3,6.9,2.4,8.6,3.6c2.9-2.9,4.6-6.9,4.6-11.2c0-8.8-7.2-16-16-16
		c-8.8,0-16,7.2-16,16c0,4.4,1.8,8.4,4.6,11.3c1.9-1.3,5.5-2.4,8.6-3.6V26.4z"/>
	<path fill="none" stroke="#0BA3DD" stroke-width="1.5" stroke-linecap="round" stroke-linejoin="round" stroke-miterlimit="10" d="
		M10.9,33.5c2.9,2.9,6.9,4.7,11.4,4.7c4.5,0,8.5-1.8,11.4-4.8"/>
</g>
</svg>
