<?xml version="1.0" encoding="UTF-8" standalone="no"?>
<svg width="26px" height="26px" viewBox="0 0 26 26" version="1.1" xmlns="http://www.w3.org/2000/svg" xmlns:xlink="http://www.w3.org/1999/xlink">
    <!-- Generator: Sketch 3.8.3 (29802) - http://www.bohemiancoding.com/sketch -->
    <title>Group</title>
    <desc>Created with Sketch.</desc>
    <defs></defs>
    <g id="Page-1" stroke="none" stroke-width="1" fill="none" fill-rule="evenodd">
        <g id="icon_benefits_blk-01" transform="translate(0.000000, 1.000000)" stroke-width="1.5" stroke="#00A8E2">
            <g id="Group">
                <path d="M24.9074074,6.336 C24.6296296,4.128 22.8703704,1.728 20.8333333,1.056 C17.4074074,-0.096 14.1666667,1.632 12.962963,4.512 C11.6666667,1.632 8.42592593,-0.192 5,1.056 C2.87037037,1.824 1.11111111,4.416 0.925925926,6.624 C0.740740741,8.736 1.38888889,9.792 2.5,11.712 L2.5,11.712 L12.962963,23.712 L23.4259259,11.712 L23.4259259,11.712 C24.537037,9.696 25.0925926,8.64 24.9074074,6.336 L24.9074074,6.336 Z" id="Shape"></path>
                <polyline id="Shape" points="2.68518519 15.168 9.35185185 15.168 11.2962963 7.392 13.4259259 19.392 15.5555556 15.168 23.6111111 15.168"></polyline>
            </g>
        </g>
    </g>
</svg>