<?xml version="1.0" encoding="utf-8"?>
<!-- Generator: Adobe Illustrator 19.2.1, SVG Export Plug-In . SVG Version: 6.00 Build 0)  -->
<svg version="1.1" id="Layer_1" xmlns="http://www.w3.org/2000/svg" xmlns:xlink="http://www.w3.org/1999/xlink" x="0px" y="0px"
	 viewBox="0 0 44 44" style="enable-background:new 0 0 44 44;" xml:space="preserve">
<style type="text/css">
	.st0{fill:none;stroke:#00A3DD;stroke-width:1.5;stroke-linecap:round;stroke-linejoin:round;stroke-miterlimit:10;}
	.st1{fill:#00A3DD;}
</style>
<g>
	<path class="st0" d="M3.2,37.4c-1.1,0-1.5-0.8-0.9-1.7L21,5.7c0.6-0.9,1.5-0.9,2.1,0l18.8,29.9c0.6,0.9,0.2,1.7-0.9,1.7H3.2z"/>
</g>
<g>
	<path class="st1" d="M24.5,31.5c0,1.4-1,2.5-2.4,2.5c-1.4,0-2.4-1.1-2.4-2.5c0-1.5,1-2.5,2.4-2.5C23.5,29,24.5,30,24.5,31.5z
		 M23.6,26.3h-2.9l-0.8-8.8v-5.6h4.6v5.6L23.6,26.3z"/>
</g>
</svg>
