<?xml version="1.0" encoding="UTF-8" standalone="no"?>
<svg width="42px" height="35px" viewBox="0 0 42 35" version="1.1" xmlns="http://www.w3.org/2000/svg" xmlns:xlink="http://www.w3.org/1999/xlink">
    <!-- Generator: Sketch 3.8.3 (29802) - http://www.bohemiancoding.com/sketch -->
    <title>Layer_1</title>
    <desc>Created with Sketch.</desc>
    <defs></defs>
    <g id="Page-1" stroke="none" stroke-width="1" fill="none" fill-rule="evenodd">
        <g id="icon_alerts_blu-01" transform="translate(1.000000, 1.000000)">
            <g id="Layer_1">
                <path d="M1.2,32.4 C0.1,32.4 -0.3,31.6 0.3,30.7 L19,0.7 C19.6,-0.2 20.5,-0.2 21.1,0.7 L39.9,30.6 C40.5,31.5 40.1,32.3 39,32.3 L1.2,32.3 L1.2,32.4 Z" id="Shape" stroke="#FFFFFF" stroke-width="1.5"></path>
                <path d="M22.5,26.5 C22.5,27.9 21.5,29 20.1,29 C18.7,29 17.7,27.9 17.7,26.5 C17.7,25 18.7,24 20.1,24 C21.5,24 22.5,25 22.5,26.5 L22.5,26.5 Z M21.6,21.3 L18.7,21.3 L17.9,12.5 L17.9,6.9 L22.5,6.9 L22.5,12.5 L21.6,21.3 L21.6,21.3 Z" id="Shape" fill="#FFFFFF"></path>
            </g>
        </g>
    </g>
</svg>