<?xml version="1.0" encoding="utf-8"?>
<!-- Generator: Adobe Illustrator 19.2.1, SVG Export Plug-In . SVG Version: 6.00 Build 0)  -->
<svg version="1.1" id="Layer_1" xmlns="http://www.w3.org/2000/svg" xmlns:xlink="http://www.w3.org/1999/xlink" x="0px" y="0px"
	 viewBox="0 0 612 792" style="enable-background:new 0 0 612 792;" xml:space="preserve">
<style type="text/css">
	.st0{fill:#FFFFFF;}
	.st1{fill:#0079BD;}
</style>
<g>
	<g>
		<path class="st0" d="M377.6,384.6c0,0,6.6-0.1,9.6-2.2c0,0,1.4,1.6,1.4,7.1c0,5.5-2.3,15.7-10.9,20.2c0,0-10-3.7-10.8-20.5
			c0,0-0.4-3.7,1.4-6.9C368.4,382.3,372,384.2,377.6,384.6"/>
		<path class="st1" d="M353.7,410.6c0-0.8,0.7-1.5,1.5-1.5s1.5,0.7,1.5,1.5c0,0.8-0.7,1.5-1.5,1.5S353.7,411.5,353.7,410.6
			 M356.5,410.6c0-0.7-0.5-1.3-1.3-1.3s-1.3,0.5-1.3,1.3c0,0.7,0.5,1.3,1.3,1.3S356.5,411.4,356.5,410.6 M354.9,411.5h-0.2v-1.7h0.7
			c0.4,0,0.6,0.2,0.6,0.5c0,0.3-0.2,0.5-0.5,0.5l0.5,0.8h-0.2l-0.5-0.8h-0.4V411.5z M355.2,410.5c0.2,0,0.6,0,0.6-0.3
			c0-0.2-0.2-0.3-0.4-0.3h-0.5v0.6H355.2z"/>
		<path class="st0" d="M345.2,405.4c5.2,0,9.3-4.2,9.3-9.3c0-5.2-4.2-9.3-9.3-9.3c-5.2,0-9.3,4.2-9.3,9.3
			C335.9,401.2,340,405.4,345.2,405.4"/>
		<path class="st1" d="M346.8,391.3c0-0.7,0.9-0.8,0.5-2.4c1.4,0.3,2.5,1.3,3.5,2.4H346.8z"/>
		<path class="st1" d="M343.4,391.3h-4c0.9-1.2,2.2-2.1,3.5-2.4C342.4,390.5,343.4,390.6,343.4,391.3"/>
		<path class="st1" d="M352.5,394.4c0.5,2.9-0.3,4.9-1.7,6.6c0,0-2.7-5.1-3-5.6c-0.3-0.6,0-0.6,0.3-0.6
			C348.4,394.8,352.5,394.4,352.5,394.4"/>
		<path class="st1" d="M337.7,394.4c0,0,4.1,0.3,4.3,0.3c0.3,0,0.6,0.1,0.3,0.6c-0.3,0.6-3,5.6-3,5.6
			C338.1,399.4,337.2,397.3,337.7,394.4"/>
		<path class="st1" d="M348.2,402.9c-0.8,0.4-1.9,0.7-3.1,0.7c-1.2,0-2.3-0.2-3.1-0.7c0,0,2.9-4.5,3.1-4.5
			C345.3,398.4,348.2,402.9,348.2,402.9"/>
		<path class="st1" d="M361,389.1h-8.8v-8.8h-14.1v8.8h-8.8v14.1h8.8l0,8.8l14.1,0v-8.8h8.8V389.1z M339,390
			c1.6-1.6,3.8-2.6,6.2-2.6c2.3,0,4.4,0.9,6,2.4c0.8,0.8,1.5,1.7,1.9,2.7l-6,0c-0.6,0-1-0.2-1.3-0.4c-0.3-0.4-0.4-0.9,0.1-1.5
			c0.8-1,0.1-2-0.8-2c-0.9,0-1.6,1-0.8,2c0.5,0.6,0.5,1.1,0.1,1.5c-0.3,0.3-0.7,0.4-1.3,0.4l-5.8,0C337.7,391.5,338.3,390.7,339,390
			 M336.5,396.1c0-1,0.2-2,0.5-3c2.1,0,4,0.4,5.2,0.4c1.3,0.1,2.2,0.7,1.3,2.3c-0.8,1.4-3.2,6-3.8,7
			C337.7,401.3,336.5,398.9,336.5,396.1 M345.2,404.8c-1.8,0-3.5-0.6-4.9-1.5c0.7-1.1,3.9-5.6,4.1-6c0.2-0.4,0.4-0.6,0.8-0.6
			c0.4,0,0.6,0.2,0.8,0.6c0.2,0.4,4.1,6,4.1,6C348.6,404.3,346.9,404.8,345.2,404.8 M350.5,403c-0.1-0.2-2.9-5.5-3.8-7.1
			c-0.8-1.6,0.1-2.2,1.3-2.3c1.2-0.1,3.1-0.4,5.3-0.4c0.3,0.9,0.5,1.9,0.5,3C353.9,398.9,352.6,401.4,350.5,403"/>
		<path class="st1" d="M384.4,410.6c0-0.9,0.7-1.6,1.6-1.6c0.9,0,1.6,0.7,1.6,1.6c0,0.9-0.7,1.6-1.6,1.6
			C385.1,412.1,384.4,411.4,384.4,410.6 M387.3,410.6c0-0.8-0.6-1.3-1.3-1.3c-0.8,0-1.3,0.5-1.3,1.3c0,0.8,0.6,1.3,1.3,1.3
			C386.7,411.9,387.3,411.3,387.3,410.6 M385.6,411.5h-0.2v-1.8h0.8c0.5,0,0.6,0.2,0.6,0.5c0,0.3-0.2,0.5-0.6,0.5l0.5,0.8h-0.3
			l-0.5-0.8h-0.4V411.5z M385.9,410.4c0.2,0,0.6,0,0.6-0.3c0-0.2-0.2-0.3-0.4-0.3h-0.5v0.6H385.9z"/>
		<path class="st1" d="M388.3,380c-3,1.6-6.1,2.4-10.6,2.4c-4.5,0-7.5-0.8-10.6-2.4c-1.2,2.2-2,5.3-2,9.1c0,10.3,5.8,17.1,7.2,18.7
			c1.4,1.5,4.2,3.8,5.3,4.1c1.1-0.2,3.9-2.6,5.3-4.1c1.4-1.5,7.2-8.4,7.2-18.7C390.3,385.3,389.6,382.2,388.3,380 M382.6,405.1
			c-0.9,1.1-4.2,4.1-4.8,4.2c-0.6-0.1-3.9-3.1-4.8-4.2c-0.7-0.8-5.5-6.8-5.5-16c0-2,0.3-4.9,1-5.9c1.9,1,5.5,1.9,9.3,1.9
			c3.8,0,7.4-0.9,9.3-1.9c0.7,1,1,3.9,1,5.9C388,398.3,383.2,404.3,382.6,405.1"/>
		<path class="st1" d="M376.5,388.7c0,0-0.1,0.2-0.2,0.2c-0.1,0-0.2,0-0.3-0.1c-0.3-0.2-0.4-0.2-0.4-0.2S376,388.4,376.5,388.7"/>
		<path class="st1" d="M386.5,384.7c-1.7,0.9-5.3,1.4-8.7,1.4c-3.4,0-7-0.5-8.7-1.4c-0.6,0.9-0.7,3.3-0.7,5.1
			c0.3,9.2,4.5,13.7,5.1,14.4c0.8,1,3.8,3.8,4.3,3.9c0.5-0.1,3.5-2.9,4.3-3.9c0.6-0.7,4.8-5.2,5.1-14.4
			C387.2,388,387.1,385.6,386.5,384.7 M376.7,405.7c0,0-0.1,0.1-0.1,0c-0.2-0.1-0.2-0.5-0.2-0.6c0-0.5,0.3-1.1,0.7-1.2l0,0.9
			C376.8,405,376.8,405.4,376.7,405.7 M378,406.3c0,0-0.4,0.2-0.7,0c0-0.1,0-0.8,0-1.4c0-0.6-0.1-1.6-0.1-2.4c0.1,0.1,0.1,0,0.3,0.1
			c0.3,0.1,0.4,0.2,0.5,0.3c0.2,0.2,0.1,1.1,0.1,1.5C378.1,405.3,378,406.2,378,406.3 M378.3,404.2v-1.1c0-0.2-0.1-0.4-0.2-0.5
			c-0.1-0.1-0.2-0.2-0.5-0.3c-0.1-0.1-0.2-0.1-0.6-0.2c-2.2-0.6-1.7-2.7-0.3-2.7c0,0.2,0,0.4,0,0.5c0,0.2,0,0.4,0.1,0.6
			c-0.3,0.2-0.1,0.2,0.1,0.3c0.2,0.1,0.6,0.3,0.8,0.4c0.2,0.1,0.6,0.2,0.7,0.3C379.7,402,379.6,403.5,378.3,404.2 M377,399.4
			c0-0.1,0-0.6,0-0.8c0.2,0,0.3,0,0.6,0.1c0.4,0.1,0.5,0,0.7,0c0,0.1,0,0.3,0,0.4c0,0.2,0,0.4,0,0.6c0,0.3,0,0.3,0,0.6
			c0,0.2,0,0.5,0,0.7c-0.2,0-0.4-0.1-0.6-0.2c-0.3-0.1-0.4-0.2-0.6-0.3c0,0,0-0.3,0-0.3l0-0.4L377,399.4z M378.4,400.5
			c0-0.3,0-0.6,0-0.9c0-0.2,0-0.2,0.1-0.4c0.2-0.2,0.5-0.2,0.2-0.6c-0.1-0.2-0.6-0.1-1.1-0.2c-0.2,0-0.5,0-1.2-0.2
			c-1.8-0.3-1.7-2.6-0.5-3.1l0.3,0.9l0.3,0.7c0.5,0,0.7,0,1.3,0.1c0.1,0,0.3,0.1,0.6,0.1C380.9,397.5,380.3,400.3,378.4,400.5
			 M376,394.8l0.6-0.9l1.6,0.1l0,2.7l-1.4-0.1l-0.4-0.9L376,394.8z M378.5,396.4c-0.2-0.9-0.1-1.7-0.1-1.7c0.7-0.1,0.2-0.9,0-0.9
			c-0.3-0.1-0.5-0.1-1-0.1c-0.3,0-0.9-0.1-1.1-0.1c-4.8-0.6-4-4.9-1.7-5.3c1.7-0.3,2.6,0.4,2.9,1c0,0-0.5,0.2-0.9,0.2
			c-0.8-0.1-1.2,0-1.2,0c0.3,0.2,1.1,0.4,1.5,0.7c-0.4,0.2-0.8,0.2-1.3,0.1c-0.4,0-0.7-0.1-1-0.3c-0.1,0.4-0.4,1.3,1.7,1.8
			c0.3,0.1,0.7,0.2,1,0.2c0.4,0,0.8,0.1,1.1,0.2c0.1,0,0.3,0.1,0.4,0.1C381.7,393,380.8,396.4,378.5,396.4 M380.7,389.4
			c-1.2,1.2-1.8,1.8-2.1,2.1c0,0-0.2,0.3-0.3,0.4l-1.7-0.3c-0.1-0.4-0.1-0.8-0.1-1.2c0.4,0,0.4-0.1,0.6-0.2L377,390
			c0.5,0.2,1,0.2,1.2,0.2l-0.2-0.2c-0.2,0-0.5-0.2-0.8-0.3c0.4-0.1,0.5-0.2,0.5-0.2s0-0.2-0.2-0.5c-0.3-0.5-0.9-0.8-0.9-0.8
			c-0.1-0.2-0.1-0.3-0.1-0.4c0-0.6,0.3-0.5,1-0.3c0.1,0,0.2,0.1,0.2,0.2c0.4,0.2,0.8,0.4,0.8,0.5c0,0,0,1.5,0.1,1.4
			c0.3-0.1,1-0.8,1.3-1C380.4,388.3,381.2,388.9,380.7,389.4"/>
	</g>
	<g>
		<path d="M221.8,412.2h1v-7h-1v-0.3h4c1.3,0,2.4,0.3,2.4,1.6c0,1.2-1,1.7-2,1.8v0c1.3,0,2.5,0.7,2.5,2.1c0,1.2-0.8,2.1-2.6,2.1
			h-4.3V412.2z M224.5,412.2h0.6c1.2,0,1.8-0.5,1.8-1.9c0-1.2-0.4-1.7-1.6-1.7h-0.8V412.2z M224.5,408.2h0.7c0.9,0,1.3-0.4,1.3-1.5
			c0-1.1-0.3-1.5-1.4-1.5h-0.6V408.2z"/>
		<path d="M228.9,412.2h0.8v-7h-0.8v-0.3h0.7c0.5,0,1.1,0,1.6-0.1v7.4h0.8v0.3h-3.1V412.2z"/>
		<path d="M237.8,412.2h0.8v0.3c-1,0-1.7,0-2.3,0.1v-0.8h0c-0.4,0.6-1,0.9-1.7,0.9c-1.1,0-1.8-0.4-1.8-1.8v-3.3h-0.8v-0.3h0.7
			c0.5,0,1.1,0,1.6-0.1v4c0,0.8,0.4,0.9,0.8,0.9c0.7,0,1.2-0.6,1.2-1.7v-2.8h-0.8v-0.3h0.7c0.5,0,1.1,0,1.6-0.1V412.2z"/>
		<path d="M240.4,409.7v0.5c0,0.9,0.2,2.1,1.4,2.1c0.9,0,1.5-0.5,1.8-1.3l0.3,0.1c-0.4,1.1-1.3,1.6-2.4,1.6c-1.7,0-2.8-1.1-2.8-2.7
			c0-1.6,1.1-2.7,2.8-2.7c1.4,0,2.5,0.9,2.5,2.5H240.4z M242.3,409.3v-0.5c0-0.6-0.1-1.3-0.9-1.3c-1,0-1,1.2-1,1.8H242.3z"/>
		<path d="M251.3,407.6h-0.3c-0.1-1.3-1.2-2.5-2.4-2.5c-2.1,0-2.3,2.1-2.3,3.6c0,1.3,0.1,3.6,2.3,3.6c1.3,0,2.4-1.2,2.5-2.5h0.3v2.2
			c-0.8,0.3-2,0.6-2.9,0.6c-2.4,0-4-1.6-4-3.9c0-2.3,1.6-3.9,4-3.9c0.9,0,1.8,0.2,2.8,0.6V407.6z"/>
		<path d="M251.6,412.2h0.8v-4.6h-0.8v-0.3h0.7c0.5,0,1.1,0,1.6-0.1v0.9h0c0.2-0.5,0.7-0.9,1.3-0.9c0.7,0,1,0.5,1,1.1
			c0,0.4-0.2,0.7-0.7,0.7c-0.4,0-0.6-0.2-0.6-0.6c0-0.3,0-0.3,0-0.5c0-0.1-0.1-0.2-0.2-0.2c-0.6,0-0.9,1.4-0.9,2.3v2.3h0.8v0.3h-3.1
			V412.2z"/>
		<path d="M258.9,412.7c-1.7,0-2.8-1.1-2.8-2.7c0-1.6,1.1-2.7,2.8-2.7c1.6,0,2.8,1.2,2.8,2.7S260.6,412.7,258.9,412.7z M258.9,407.5
			c-1.1,0-1.1,1.2-1.1,2.4c0,1.2,0,2.4,1.1,2.4c1.1,0,1.1-1.2,1.1-2.4C260.1,408.7,260.1,407.5,258.9,407.5z"/>
		<path d="M262.1,410.6h0.3c0,1,0.7,1.8,1.6,1.8c0.5,0,1.1-0.2,1.1-0.8c0-1.2-2.9-0.7-2.9-2.8c0-1.1,0.8-1.6,1.9-1.6
			c0.8,0,1.2,0.2,1.7,0.3v1.4h-0.3c-0.1-0.7-0.7-1.4-1.4-1.4c-0.4,0-0.8,0.2-0.8,0.7c0,1.1,2.9,0.6,2.9,2.7c0,1.2-1.1,1.8-2.1,1.8
			c-0.8,0-1.5-0.2-1.9-0.4V410.6z"/>
		<path d="M266.5,410.6h0.3c0,1,0.7,1.8,1.6,1.8c0.5,0,1.1-0.2,1.1-0.8c0-1.2-2.9-0.7-2.9-2.8c0-1.1,0.8-1.6,1.9-1.6
			c0.8,0,1.2,0.2,1.7,0.3v1.4h-0.3c-0.1-0.7-0.6-1.4-1.4-1.4c-0.4,0-0.8,0.2-0.8,0.7c0,1.1,2.9,0.6,2.9,2.7c0,1.2-1.1,1.8-2.1,1.8
			c-0.8,0-1.5-0.2-1.9-0.4V410.6z"/>
	</g>
	<g>
		<path d="M271.3,412.2h1v-7h-1v-0.3h4c1.3,0,2.4,0.3,2.4,1.6c0,1.2-1,1.7-2,1.8v0c1.3,0,2.5,0.7,2.5,2.1c0,1.2-0.8,2.1-2.6,2.1
			h-4.3V412.2z M273.9,412.2h0.6c1.2,0,1.8-0.5,1.8-1.9c0-1.2-0.4-1.7-1.6-1.7h-0.8V412.2z M273.9,408.2h0.7c0.9,0,1.3-0.4,1.3-1.5
			c0-1.1-0.3-1.5-1.4-1.5h-0.6V408.2z"/>
		<path d="M278.3,412.2h0.8v-7h-0.8v-0.3h0.7c0.5,0,1.1,0,1.6-0.1v7.4h0.8v0.3h-3.1V412.2z"/>
		<path d="M287.2,412.2h0.8v0.3c-1,0-1.7,0-2.3,0.1v-0.8h0c-0.4,0.6-1,0.9-1.7,0.9c-1.1,0-1.8-0.4-1.8-1.8v-3.3h-0.8v-0.3h0.7
			c0.5,0,1.1,0,1.6-0.1v4c0,0.8,0.4,0.9,0.8,0.9c0.7,0,1.2-0.6,1.2-1.7v-2.8h-0.8v-0.3h0.7c0.5,0,1.1,0,1.6-0.1V412.2z"/>
		<path d="M289.8,409.7v0.5c0,0.9,0.2,2.1,1.4,2.1c0.9,0,1.5-0.5,1.8-1.3l0.3,0.1c-0.4,1.1-1.3,1.6-2.4,1.6c-1.7,0-2.8-1.1-2.8-2.7
			c0-1.6,1.1-2.7,2.8-2.7c1.4,0,2.5,0.9,2.5,2.5H289.8z M291.7,409.3v-0.5c0-0.6-0.1-1.3-0.9-1.3c-1,0-1,1.2-1,1.8H291.7z"/>
		<path d="M293.7,410h0.4c0.1,1.1,0.9,2.3,2.3,2.3c0.8,0,1.6-0.3,1.6-1.3c0-1.9-4.2-1.3-4.2-3.9c0-1.6,1.3-2.3,2.5-2.3
			c0.6,0,1.2,0.1,2.2,0.5l0.1,1.8h-0.4c-0.2-1-1-1.9-2.1-1.9c-0.7,0-1.2,0.5-1.2,1.2c0,1.7,4.1,1,4.1,4c0,1.4-1.2,2.3-2.8,2.3
			c-0.8,0-1.7-0.2-2.5-0.5L293.7,410z"/>
		<path d="M299.2,412.2h0.8v-7h-0.8v-0.3h0.7c0.5,0,1.1,0,1.6-0.1v3.2h0c0.4-0.6,0.9-0.9,1.7-0.9c1.1,0,1.8,0.6,1.8,1.8v3.3h0.8v0.3
			h-3.1v-0.3h0.8v-3.5c0-0.8-0.4-1-0.8-1c-0.6,0-1.2,0.6-1.2,1.5v3.1h0.8v0.3h-3.1V412.2z"/>
		<path d="M305.8,412.2h0.8v-4.6h-0.8v-0.3h0.7c0.5,0,1.1,0,1.6-0.1v5h0.8v0.3h-3.1V412.2z M307.3,404.8c0.5,0,0.8,0.4,0.8,0.8
			c0,0.5-0.4,0.8-0.8,0.8s-0.8-0.4-0.8-0.8C306.5,405.2,306.9,404.8,307.3,404.8z"/>
		<path d="M310.7,409.7v0.5c0,0.9,0.2,2.1,1.4,2.1c0.9,0,1.5-0.5,1.8-1.3l0.3,0.1c-0.4,1.1-1.3,1.6-2.4,1.6c-1.7,0-2.8-1.1-2.8-2.7
			c0-1.6,1.1-2.7,2.8-2.7c1.4,0,2.5,0.9,2.5,2.5H310.7z M312.6,409.3v-0.5c0-0.6-0.1-1.3-0.9-1.3c-1,0-1,1.2-1,1.8H312.6z"/>
		<path d="M314.4,412.2h0.8v-7h-0.8v-0.3h0.7c0.5,0,1.1,0,1.6-0.1v7.4h0.8v0.3h-3.1V412.2z"/>
		<path d="M321.5,411.9L321.5,411.9c-0.4,0.6-1,0.7-1.6,0.7c-1.6,0-2.3-1.3-2.3-2.7c0-1.4,0.8-2.7,2.4-2.7c0.7,0,1.2,0.2,1.5,0.8h0
			v-2.7h-0.8v-0.3h0.7c0.5,0,1.1,0,1.6-0.1v7.4h0.8v0.3c-1,0-1.7,0-2.3,0.1V411.9z M320.3,407.6c-1.1,0-1.1,1-1.1,2.3
			c0,1.5,0.3,2.3,1.1,2.3c1.1,0,1.2-1.3,1.2-2.3C321.5,409.1,321.4,407.6,320.3,407.6z"/>
	</g>
	<g>
		<path class="st1" d="M323.1,398.3c0-0.7,0.6-1.3,1.3-1.3c0.7,0,1.3,0.6,1.3,1.3c0,0.7-0.6,1.3-1.3,1.3
			C323.7,399.6,323.1,399,323.1,398.3 M325.4,398.3c0-0.6-0.4-1.1-1.1-1.1c-0.6,0-1.1,0.4-1.1,1.1c0,0.6,0.4,1.1,1.1,1.1
			C325,399.4,325.4,398.9,325.4,398.3 M324.1,399h-0.2v-1.4h0.6c0.4,0,0.5,0.1,0.5,0.4c0,0.3-0.2,0.4-0.4,0.4l0.4,0.6h-0.2l-0.4-0.6
			h-0.3V399z M324.3,398.2c0.2,0,0.5,0,0.5-0.2c0-0.2-0.2-0.2-0.3-0.2h-0.4v0.5H324.3z"/>
		<path class="st1" d="M302.9,390.6c-0.8-0.7-1.9-1.1-3.2-1.1c-1.2,0-2.3,0.5-3.2,1.5c-0.9,1-1.4,2.3-1.4,3.8c0,1.4,0.5,2.8,1.5,3.7
			c0.9,0.9,2.1,1.4,3.4,1.4c2.5,0,3.9-1.8,4.1-3.6l0-0.1h-0.1h-0.6h-0.1l0,0.1c-0.2,1.4-1.4,2.9-3.2,2.9c-1.5,0-2.3-1-2.3-2.8
			c0,0,0-2,0-2.3h6.4h0.1l0-0.1C304.3,392.5,303.8,391.4,302.9,390.6 M301.6,393.4h-3.7v-1c0-0.7,0.2-1.2,0.6-1.6
			c0.3-0.3,0.8-0.5,1.3-0.5c1.2,0,1.9,0.8,1.9,2.1V393.4z"/>
		<path class="st1" d="M282.7,397.7L282.7,397.7H282H282l0,0.1c-0.1,0.5-0.4,1.2-1.3,1.2c-0.7,0-1.1-0.5-1.1-1.5v-7h2.3h0.1l0-0.1
			v-0.5v-0.1h-0.1h-2.3v-2.9v-0.1l-0.1,0c-0.6,0.1-1.7,0.1-2.3,0.1h-0.1v0.1v2.8h-1.5h-0.1v0.1v0.5v0.1h0.1h1.5v6.1
			c0,2.2,1,3.4,2.8,3.4C282.1,399.9,282.6,398.3,282.7,397.7L282.7,397.7z"/>
		<path class="st1" d="M274.1,399v-6.2c0-1-0.3-1.8-0.9-2.4c-0.6-0.6-1.4-0.9-2.4-0.9c-1.3,0-2.3,0.5-3.1,1.6l0-1.2l0-0.1h-0.1h-3.7
			h-0.1v0.1v0.5v0.1h0.1h1.4v8.5h-2.7l-5.6-16.1l0-0.1H257h-0.6h-0.1l0,0.1l-5.5,16.1h-1.5h-0.1v0.1v0.5v0.1h0.1h4.4h0.1v-0.1V399
			V399h-0.1h-2l1.5-4.6h4.9l1.5,4.6h-2h-0.1v0.1v0.5v0.1h0.1h11.5h0.1v-0.1V399V399h-0.1h-1.4v-4.7c0-2.8,1.5-3.8,2.5-3.8
			c1,0,1.5,0.6,1.5,1.9v6.7h-1.4h-0.1v0.1v0.5v0.1h0.1h5.2h0.1v-0.1V399V399h-0.1H274.1z M255.7,387.1l2.3,6.5h-4.4L255.7,387.1z"/>
		<path class="st1" d="M293.3,399v-6.3c0-1.5-0.9-3.2-3.4-3.2c-1.9,0-2.9,0.9-3.4,1.4v-8v-0.1h-0.1h-3.7h-0.1v0.1v0.5v0.1h0.1h1.4
			V399h-1.5h-0.1v0.1v0.5v0.1h0.1h5.4h0.1v-0.1V399V399h-0.1h-1.4v-4.8c0-1.6,0.6-2.6,1-3c0.5-0.5,1-0.7,1.6-0.7
			c1.3,0,1.6,1.1,1.6,2v6.5h-1.4h-0.1v0.1v0.5v0.1h0.1h5.4h0.1v-0.1V399V399h-0.1H293.3z"/>
		<path class="st1" d="M322.4,399h-1.5v-6.6c0-1.7-1.2-2.8-3.1-2.8c-1.8,0-2.8,0.9-3.2,1.5c-0.5-1-1.5-1.5-2.8-1.5
			c-1.3,0-2.4,0.5-3.2,1.3l0-1l0-0.1h-0.1h-3.8h-0.1v0.1v0.5v0.1h0.1h1.5v8.5h-1.5h-0.1v0.1v0.5v0.1h0.1h5.2h0.1v-0.1V399V399H310
			h-1.3v-4.7c0-1.4,0.1-2.2,0.6-2.9c0.4-0.6,1.1-0.9,1.7-0.9c0.8,0,1.1,0.6,1.1,0.7c0.2,0.4,0.2,1.1,0.2,1.7v6.1H311h-0.1v0.1v0.5
			v0.1h0.1h5.1h0.1v-0.1V399V399h-0.1h-1.3v-4.7c0-1.4,0.1-2.2,0.6-2.9c0.4-0.6,1.1-0.9,1.7-0.9c0.8,0,1.1,0.6,1.1,0.7
			c0.2,0.4,0.2,1.1,0.2,1.7v6.1h-1.4h-0.1v0.1v0.5v0.1h0.1h5.3h0.1v-0.1L322.4,399L322.4,399L322.4,399z"/>
	</g>
</g>
</svg>
