<?xml version="1.0" encoding="utf-8"?>
<!-- Generator: Adobe Illustrator 19.2.1, SVG Export Plug-In . SVG Version: 6.00 Build 0)  -->
<svg version="1.1" id="Layer_1" xmlns="http://www.w3.org/2000/svg" xmlns:xlink="http://www.w3.org/1999/xlink" x="0px" y="0px"
	 viewBox="0 0 612 792" style="enable-background:new 0 0 612 792;" xml:space="preserve">
<style type="text/css">
	.st0{fill:#007CC2;}
</style>
<g>
	<path class="st0" d="M288,393.9c-0.3-1.6-1.8-2.7-3.5-2.7c-1.8,0-3.3,0.9-3.7,2.7H288L288,393.9L288,393.9z M286.1,405.3h-2.9
		c-5-0.5-8.6-3.6-8.6-8.9c0-5.6,4-9,9.7-9c6.1,0,9.6,3.6,9.6,9.4v0.6h-13c0,2.4,1.3,3.8,3.9,3.8c1.3,0,2.3-0.4,3-1.6h6
		C292.7,403.1,289.5,404.9,286.1,405.3L286.1,405.3z"/>
	<polygon class="st0" points="304.7,405.1 298.5,405.1 298.5,393.1 295.4,393.1 295.4,388.2 298.5,388.2 298.5,383.1 304.7,383.1 
		304.7,388.2 307.8,388.2 307.8,393.1 304.7,393.1 304.7,405.1 	"/>
	<polygon class="st0" points="333.1,405.1 326.9,405.1 326.9,387 333.1,387 333.1,405.1 	"/>
	<path class="st0" d="M345.5,405h-6.2v-11.4h-3.1v-4.9h3.1v-0.9c0-2.3,0.1-4.1,1.8-5.9c1.5-1.7,3.7-2.7,6.1-2.7c1,0,1.8,0.2,2.7,0.6
		v5.2c-0.7-0.3-1.4-0.6-2.2-0.6c-1.6,0-2.1,0.9-2.1,2.8v1.5h3.7v4.9h-3.7V405L345.5,405z"/>
	<path class="st0" d="M364.1,393.9c-0.3-1.6-1.8-2.7-3.5-2.7c-1.8,0-3.3,0.9-3.7,2.7H364.1L364.1,393.9L364.1,393.9z M362.2,405.3
		h-3.1c-5-0.5-8.5-3.6-8.5-8.9c0-5.6,4-9,9.7-9c6.1,0,9.6,3.6,9.6,9.4v0.6h-13c0,2.4,1.3,3.8,3.9,3.8c1.3,0,2.3-0.4,3-1.6h6
		C368.7,403.1,365.6,404.9,362.2,405.3L362.2,405.3z"/>
	<path class="st0" d="M330,377.3c-2.1,0-3.8,1.7-3.8,3.7c0,2,1.7,3.7,3.8,3.7c2.1,0,3.8-1.7,3.8-3.7
		C333.8,379,332.1,377.3,330,377.3L330,377.3z"/>
	<polygon class="st0" points="246.6,381.4 252.8,381.4 257.8,394.1 263.1,381.4 269.4,381.4 273.1,405.1 266.7,405.1 264.9,391.5 
		264.9,391.5 259,405.1 256.5,405.1 250.8,391.5 250.8,391.5 248.7,405.1 242.4,405.1 246.6,381.4 	"/>
	<polygon class="st0" points="316.8,399.8 324.6,399.8 324.6,405.1 310.4,405.1 310.4,381 316.8,381 316.8,399.8 	"/>
	<path class="st0" d="M368.5,384.8h0.3c0.3,0,0.6,0,0.6-0.3c0-0.3-0.3-0.3-0.5-0.3h-0.4V384.8L368.5,384.8L368.5,384.8z
		 M368.1,383.9h0.8c0.5,0,0.7,0.3,0.7,0.6c0,0.4-0.2,0.6-0.6,0.6l0.6,0.9h-0.4l-0.6-0.9h-0.3v0.9h-0.4V383.9L368.1,383.9
		L368.1,383.9z M368.8,386.7c1,0,1.7-0.7,1.7-1.7c0-1-0.7-1.7-1.7-1.7c-1,0-1.7,0.7-1.7,1.7C367.1,386,367.8,386.7,368.8,386.7
		L368.8,386.7L368.8,386.7z M368.8,383c1.1,0,2,0.8,2,2c0,1.1-1,1.9-2,1.9c-1.1,0-2.1-0.8-2.1-1.9C366.8,383.8,367.7,383,368.8,383
		L368.8,383z"/>
</g>
</svg>
