<?xml version="1.0" encoding="utf-8"?>
<!-- Generator: Adobe Illustrator 19.2.1, SVG Export Plug-In . SVG Version: 6.00 Build 0)  -->
<svg version="1.1" id="Layer_1" xmlns="http://www.w3.org/2000/svg" xmlns:xlink="http://www.w3.org/1999/xlink" x="0px" y="0px"
	 viewBox="0 0 612 792" style="enable-background:new 0 0 612 792;" xml:space="preserve">
<style type="text/css">
	.st0{fill-rule:evenodd;clip-rule:evenodd;fill:#FFFFFF;}
	.st1{fill-rule:evenodd;clip-rule:evenodd;fill:#C01230;}
	.st2{fill:#C01230;}
	.st3{fill-rule:evenodd;clip-rule:evenodd;}
</style>
<g>
	<path class="st0" d="M347.3,405.8c0,0.3,0,0.5,0,0.7c0,1.9,0,3.8,0,5.7c0,2,1.1,3.3,3,3.8c1.6,0.4,3,0.1,4.3-0.9
		c0.1-0.1,0.3-0.2,0.5-0.4c0,0.6,0,1,0,1.4c1.9,0,3.7,0,5.5,0c-0.7-0.3-0.9-0.9-1-1.6c0-0.3,0-0.5,0-0.8c0-3.2,0-6.3,0-9.5
		c0-0.2,0-0.4,0-0.7c-1.9,0.1-3.7,0.2-5.5,0.2c0.9,0.4,1,1.1,1,1.9c0,1.8,0,3.6,0,5.4c0,0.4-0.1,0.9-0.2,1.3c-0.2,0.6-0.7,0.9-1.3,1
		c-1.1,0.1-1.7-0.6-1.7-1.8c0-2.4,0-4.9,0-7.3c0-0.2,0-0.4,0-0.6c-0.2,0-0.4,0-0.6,0c-4,0-8.1,0-12.1,0c-1.4,0-2.8,0.2-4,1
		c-2.3,1.5-2.7,4.4-0.7,6.3c0.6,0.6,1.2,1,1.9,1.4c-0.4,0.1-0.8,0.2-1.2,0.4c-0.4,0.1-0.6,0.4-0.6,0.9c0.1,1.5,1.1,2.5,2.6,2.6
		c0.3,0,0.7,0,1,0c0.8,0.1,1.7,0.1,2.5,0.3c0.7,0.2,1.1,0.8,1.1,1.6c0,0.8-0.3,1.5-1.1,1.8c-1,0.4-2.1,0.5-3.1,0.1
		c-0.6-0.2-1.2-0.6-1.3-1.3c-0.2-0.7,0.1-1.2,0.8-1.5c-1.3-0.2-2.4-0.2-3.5,0.3c-1.6,0.8-1.8,2.6-0.3,3.6c0.6,0.4,1.3,0.7,1.9,1
		c1.9,0.6,3.9,0.5,5.8,0.4c1.4-0.1,2.7-0.5,3.9-1.3c2.3-1.6,2.1-4.9-0.3-6.3c-0.6-0.3-1.3-0.6-1.9-0.6c-1.3-0.1-2.6-0.1-3.8-0.1
		c-0.4,0-1,0-1-0.6c0-0.6,0.5-0.5,0.9-0.6c1.5-0.2,3-0.5,4.3-1.3c2.1-1.2,2.6-3.5,1.2-5.4c-0.1-0.1-0.2-0.2-0.3-0.4
		c0.2,0,0.2,0,0.3,0C345.2,405.8,346.2,405.8,347.3,405.8z"/>
	<path class="st0" d="M306,406.9c1-0.3,1.9-0.5,2.8-0.7c0.8-0.2,1.6-0.1,2.3,0.3c0.7,0.5,0.7,1.2,0,1.6c-0.4,0.3-0.9,0.4-1.4,0.5
		c-1.2,0.3-2.5,0.6-3.6,1c-1.2,0.5-2,1.5-2,2.9c-0.1,1.4,0.9,2.5,2.4,3.1c1.4,0.5,2.8,0.5,4.2,0.5c0.1,0,0.2-0.1,0.3-0.1
		c0.3-0.6,0.6-1.1,0.8-1.7c-0.6-0.1-1.2-0.1-1.7-0.3c-1.2-0.4-1.4-1.8-0.5-2.6c0.6-0.5,1.4-0.7,2.2-0.8c0,0.6,0,1.1,0,1.7
		c0,2.1,1,3.3,3.1,3.7c0.4,0.1,0.8,0.1,1.3,0.1c2.7,0,5.4,0,8.1,0c0.2,0,0.4,0,0.6,0c-0.8-0.5-1-1.2-1-2c0-1.9,0-3.7,0-5.6
		c0-0.2,0-0.4,0.1-0.5c0.2-1,0.9-1.7,1.9-1.6c0.9,0.1,1.3,0.6,1.3,1.8c0,2,0,4.1,0,6.1c0,0.6,0,1.2,0,1.8c1.9,0,3.7,0,5.5,0
		c-0.8-0.5-1-0.9-1.1-1.9c0-0.2,0-0.4,0-0.5c0-2,0-4.1,0-6.1c0-2.1-1.2-3.5-3.2-3.9c-1.5-0.3-2.8,0-4,0.9c-0.1,0.1-0.3,0.2-0.5,0.4
		c0-0.5,0-0.9-0.1-1.4c-1.9,0.1-3.7,0.1-5.5,0.2c0.9,0.4,1,1.2,1,2c0,2.7,0,5.3,0,8c0,0.2,0,0.3,0,0.5c-1.9,0.3-2.9-0.5-2.9-2.4
		c0-1.2,0-2.4,0-3.7c0-2.3-1.1-3.7-3.3-4.3c-1.9-0.5-3.8-0.4-5.6,0c-0.1,0-0.3,0.2-0.4,0.3C306.5,405.1,306.3,406,306,406.9z"/>
	<path class="st0" d="M375.3,403.8c0.7,0.3,0.9,1,1,1.6c0,0.2,0,0.3,0,0.5c0,2.6,0,5.2,0,7.8c0,0.2,0,0.3,0,0.5c-2,0.3-3-0.5-3-2.4
		c0-1.3,0-2.6-0.1-3.9c-0.1-1.7-0.8-3-2.4-3.7c-2.1-0.8-4.3-0.7-6.5-0.2c-0.1,0-0.3,0.2-0.3,0.3c-0.3,0.9-0.6,1.8-0.9,2.7
		c0.9-0.3,1.8-0.5,2.8-0.7c0.7-0.2,1.5-0.1,2.2,0.3c0.8,0.5,0.8,1.3,0,1.7c-0.4,0.2-0.8,0.4-1.3,0.5c-1,0.3-2.1,0.4-3.1,0.8
		c-1.7,0.5-2.6,1.8-2.6,3.3c0,1.4,1,2.5,2.6,3.1c1.3,0.4,2.6,0.4,4,0.4c0.1,0,0.3-0.1,0.3-0.2c0.3-0.6,0.6-1.1,0.8-1.6
		c-0.6-0.1-1.2-0.1-1.7-0.3c-0.6-0.2-0.9-0.7-1-1.3c-0.1-0.6,0.2-1.1,0.7-1.4c0.6-0.3,1.3-0.5,2.1-0.9c0,0.9,0,1.5,0,2.2
		c0.1,1.5,0.7,2.5,2.1,3c0.6,0.2,1.3,0.4,2,0.4c2.8,0,5.6,0,8.4,0c0.1,0,0.3,0,0.4,0c-0.9-0.4-1-1.1-1-1.9c0-1.8,0-3.6,0-5.4
		c0-1.3,0.8-2.1,2.1-2.2c0.5-0.1,1,0,1.5,0c0-0.9,0-1.7,0-2.6c0-0.4-0.1-0.5-0.5-0.5c-1.2-0.1-2.1,0.3-2.8,1.2
		c-0.1,0.1-0.2,0.2-0.4,0.4c0-0.6,0-1.1,0-1.5C378.9,403.7,377.1,403.7,375.3,403.8z"/>
	<path class="st0" d="M393.3,404.4c-0.1,0-0.1,0-0.1,0c-0.2-0.1-0.3-0.2-0.5-0.2c-1.9-0.9-3.7-0.8-5.4,0.4c-3,2.1-3.4,7.2-0.9,10
		c1.2,1.3,2.7,2,4.6,1.8c0.3,0,0.7-0.1,0.8-0.3c0.4-0.6,0.8-1.3,1.1-2c-1.9,0-2.8-0.7-3.2-2.5c-0.3-1.2-0.3-2.3,0-3.5
		c0.1-0.4,0.3-0.9,0.6-1.2c0.8-1,2.3-0.7,2.8,0.5c0.2,0.4,0.2,1,0.2,1.4c0,2.3,0,4.5,0,6.8c0,0.2,0,0.4,0,0.6c1.9,0,3.7,0,5.6,0
		c-0.6-0.2-0.9-0.7-1-1.3c-0.1-0.3-0.1-0.6-0.1-0.9c0-5,0-10.1,0-15.1c0-0.2,0-0.4,0-0.7c-1.9,0.1-3.7,0.2-5.6,0.2
		c0.7,0.3,0.9,0.9,0.9,1.5C393.3,401.3,393.3,402.8,393.3,404.4z"/>
	<path class="st0" d="M289.4,398.1c0,0,0,0.1,0,0.1c0.9,0.4,1.2,1.2,1.5,2.1c1.4,3.8,2.8,7.6,4.1,11.4c0.9,2.7,3.1,3.8,5.7,4.5
		c2-6,4.1-12,6.1-18.1c-1.6,0-3.2,0-4.8,0c1.3,0.9,1.4,1.4,1,2.8c-0.5,1.6-1,3.2-1.5,4.8c-0.5,1.7-1.1,3.4-1.6,5.2
		c-0.1-0.4-0.2-0.5-0.3-0.7c-1.3-3.9-2.6-7.7-3.9-11.6c-0.1-0.4-0.3-0.5-0.7-0.5c-1.3,0-2.6,0-3.8,0
		C290.5,398.1,289.9,398.1,289.4,398.1z"/>
	<path class="st1" d="M347.3,405.8c-1.1,0-2,0-3,0c-0.1,0-0.2,0-0.3,0c0.1,0.2,0.2,0.3,0.3,0.4c1.4,1.9,0.9,4.3-1.2,5.4
		c-1.3,0.8-2.8,1.1-4.3,1.3c-0.4,0.1-1,0-0.9,0.6c0,0.6,0.6,0.6,1,0.6c1.3,0,2.6,0,3.8,0.1c0.7,0.1,1.3,0.3,1.9,0.6
		c2.4,1.4,2.6,4.7,0.3,6.3c-1.1,0.8-2.5,1.2-3.9,1.3c-2,0.2-3.9,0.3-5.8-0.4c-0.7-0.2-1.4-0.6-1.9-1c-1.4-1-1.2-2.8,0.3-3.6
		c1.1-0.5,2.2-0.5,3.5-0.3c-0.7,0.4-1,0.9-0.8,1.5c0.2,0.7,0.7,1.1,1.3,1.3c1,0.4,2.1,0.3,3.1-0.1c0.8-0.3,1.1-0.9,1.1-1.8
		c0-0.8-0.4-1.4-1.1-1.6c-0.8-0.2-1.7-0.3-2.5-0.3c-0.3,0-0.7,0-1,0c-1.5-0.1-2.5-1.1-2.6-2.6c0-0.5,0.2-0.7,0.6-0.9
		c0.4-0.1,0.8-0.2,1.2-0.4c-0.6-0.5-1.3-0.9-1.9-1.4c-1.9-1.9-1.6-4.9,0.7-6.3c1.2-0.8,2.6-1,4-1c4,0,8.1,0,12.1,0
		c0.2,0,0.4,0,0.6,0c0,0.2,0,0.4,0,0.6c0,2.4,0,4.9,0,7.3c0,1.2,0.7,1.9,1.7,1.8c0.7,0,1.1-0.4,1.3-1c0.1-0.4,0.2-0.9,0.2-1.3
		c0-1.8,0-3.6,0-5.4c0-0.7-0.1-1.5-1-1.9c1.8-0.1,3.6-0.2,5.5-0.2c0,0.2,0,0.5,0,0.7c0,3.2,0,6.3,0,9.5c0,0.3,0,0.5,0,0.8
		c0.1,0.7,0.3,1.3,1,1.6c-1.8,0-3.6,0-5.5,0c0-0.4,0-0.8,0-1.4c-0.3,0.2-0.4,0.3-0.5,0.4c-1.3,1-2.7,1.3-4.3,0.9
		c-1.9-0.5-3-1.8-3-3.8c0-1.9,0-3.8,0-5.7C347.3,406.3,347.3,406.1,347.3,405.8z M340.6,408.1c-0.1-0.4-0.2-1-0.4-1.4
		c-0.5-0.9-1.7-1-2.3-0.2c-0.6,0.7-0.7,2.5-0.1,3.3c0.3,0.5,0.8,0.7,1.4,0.7c0.6-0.1,1-0.4,1.1-1C340.5,409,340.5,408.6,340.6,408.1
		z"/>
	<path class="st1" d="M306,406.9c0.3-0.9,0.5-1.8,0.8-2.6c0-0.1,0.2-0.3,0.4-0.3c1.9-0.4,3.8-0.6,5.6,0c2.2,0.6,3.3,2,3.3,4.3
		c0,1.2,0,2.4,0,3.7c0,1.8,1.1,2.7,2.9,2.4c0-0.1,0-0.3,0-0.5c0-2.7,0-5.3,0-8c0-0.8-0.1-1.6-1-2c1.8-0.1,3.6-0.1,5.5-0.2
		c0,0.5,0,0.9,0.1,1.4c0.2-0.2,0.4-0.3,0.5-0.4c1.2-0.9,2.5-1.2,4-0.9c2,0.4,3.2,1.8,3.2,3.9c0,2,0,4.1,0,6.1c0,0.2,0,0.4,0,0.5
		c0,1,0.3,1.4,1.1,1.9c-1.9,0-3.7,0-5.5,0c0-0.6,0-1.2,0-1.8c0-2,0-4.1,0-6.1c0-1.2-0.4-1.7-1.3-1.8c-1-0.1-1.7,0.5-1.9,1.6
		c0,0.2-0.1,0.4-0.1,0.5c0,1.9,0,3.7,0,5.6c0,0.8,0.2,1.6,1,2c-0.2,0-0.4,0-0.6,0c-2.7,0-5.4,0-8.1,0c-0.4,0-0.8,0-1.3-0.1
		c-2-0.4-3-1.7-3.1-3.7c0-0.5,0-1.1,0-1.7c-0.8,0.2-1.6,0.3-2.2,0.8c-0.9,0.8-0.7,2.2,0.5,2.6c0.5,0.2,1.1,0.2,1.7,0.3
		c-0.3,0.5-0.5,1.1-0.8,1.7c0,0.1-0.2,0.1-0.3,0.1c-1.4,0-2.9,0.1-4.2-0.5c-1.5-0.6-2.4-1.8-2.4-3.1c0.1-1.4,0.8-2.4,2-2.9
		c1.2-0.5,2.4-0.7,3.6-1c0.5-0.1,1-0.3,1.4-0.5c0.7-0.4,0.7-1.2,0-1.6c-0.7-0.5-1.5-0.5-2.3-0.3C307.9,406.3,307,406.6,306,406.9z"
		/>
	<path class="st1" d="M375.3,403.8c1.8-0.1,3.6-0.1,5.5-0.2c0,0.5,0,0.9,0,1.5c0.2-0.2,0.3-0.3,0.4-0.4c0.7-0.9,1.7-1.3,2.8-1.2
		c0.4,0,0.5,0.2,0.5,0.5c0,0.9,0,1.7,0,2.6c-0.6,0-1.1,0-1.5,0c-1.3,0.1-2.1,0.9-2.1,2.2c0,1.8,0,3.6,0,5.4c0,0.7,0.1,1.5,1,1.9
		c-0.1,0-0.3,0-0.4,0c-2.8,0-5.6,0-8.4,0c-0.7,0-1.4-0.1-2-0.4c-1.4-0.5-2.1-1.6-2.1-3c0-0.7,0-1.3,0-2.2c-0.8,0.3-1.5,0.5-2.1,0.9
		c-0.5,0.3-0.7,0.8-0.7,1.4c0.1,0.6,0.4,1.1,1,1.3c0.5,0.2,1.1,0.2,1.7,0.3c-0.3,0.5-0.5,1.1-0.8,1.6c0,0.1-0.2,0.2-0.3,0.2
		c-1.3,0-2.7,0.1-4-0.4c-1.6-0.6-2.6-1.7-2.6-3.1c0-1.5,0.9-2.7,2.6-3.3c1-0.3,2.1-0.5,3.1-0.8c0.4-0.1,0.9-0.2,1.3-0.5
		c0.8-0.5,0.7-1.3,0-1.7c-0.7-0.4-1.4-0.4-2.2-0.3c-0.9,0.2-1.8,0.5-2.8,0.7c0.3-0.9,0.6-1.8,0.9-2.7c0-0.1,0.2-0.2,0.3-0.3
		c2.2-0.5,4.4-0.6,6.5,0.2c1.7,0.7,2.4,2,2.4,3.7c0.1,1.3,0.1,2.6,0.1,3.9c0,1.9,1,2.8,3,2.4c0-0.2,0-0.3,0-0.5c0-2.6,0-5.2,0-7.8
		c0-0.2,0-0.3,0-0.5C376.2,404.8,376,404.1,375.3,403.8z"/>
	<path class="st1" d="M393.3,404.4c0-1.5,0-3,0-4.6c0-0.6-0.3-1.2-0.9-1.5c1.8-0.1,3.7-0.1,5.6-0.2c0,0.2,0,0.5,0,0.7
		c0,5,0,10.1,0,15.1c0,0.3,0,0.6,0.1,0.9c0.1,0.6,0.3,1,1,1.3c-1.8,0-3.7,0-5.6,0c0-0.2,0-0.4,0-0.6c0-2.3,0-4.5,0-6.8
		c0-0.5-0.1-1-0.2-1.4c-0.5-1.2-2-1.5-2.8-0.5c-0.3,0.3-0.5,0.8-0.6,1.2c-0.3,1.1-0.3,2.3,0,3.5c0.5,1.8,1.4,2.5,3.2,2.5
		c-0.4,0.7-0.7,1.4-1.1,2c-0.1,0.2-0.5,0.3-0.8,0.3c-1.8,0.2-3.3-0.5-4.6-1.8c-2.6-2.7-2.1-7.8,0.9-10c1.7-1.2,3.5-1.4,5.4-0.4
		c0.2,0.1,0.3,0.2,0.5,0.2C393.2,404.4,393.2,404.4,393.3,404.4z"/>
	<path class="st1" d="M289.4,398.1c0.6,0,1.1,0,1.7,0c1.3,0,2.6,0,3.8,0c0.4,0,0.6,0.1,0.7,0.5c1.3,3.9,2.6,7.7,3.9,11.6
		c0.1,0.2,0.1,0.4,0.3,0.7c0.6-1.9,1.1-3.5,1.6-5.2c0.5-1.6,1-3.2,1.5-4.8c0.5-1.4,0.3-2-1-2.8c1.6,0,3.2,0,4.8,0
		c-2,6-4.1,12-6.1,18.1c-2.6-0.7-4.8-1.8-5.7-4.5c-1.3-3.8-2.7-7.6-4.1-11.4c-0.3-0.8-0.6-1.6-1.5-2.1
		C289.4,398.2,289.4,398.2,289.4,398.1z"/>
	<path class="st0" d="M340.6,408.1c-0.1,0.5-0.2,1-0.3,1.4c-0.2,0.5-0.5,0.9-1.1,1c-0.6,0.1-1.1-0.2-1.4-0.7
		c-0.6-0.8-0.5-2.5,0.1-3.3c0.6-0.8,1.8-0.7,2.3,0.2C340.4,407.1,340.5,407.7,340.6,408.1z"/>
	<path class="st1" d="M401.4,397.8c-1.1,0-2,0.9-2,2c0,1.1,0.9,2,2,2c1.1,0,2-0.9,2-2C403.4,398.7,402.5,397.8,401.4,397.8z
		 M401.4,401.6c-1,0-1.7-0.8-1.7-1.7c0-1,0.8-1.7,1.7-1.7c1,0,1.7,0.8,1.7,1.7C403.1,400.8,402.4,401.6,401.4,401.6z"/>
	<g>
		<g>
			<path class="st2" d="M400.6,400.8V399h0.8c0.2,0,0.3,0,0.4,0c0.1,0,0.2,0.1,0.2,0.2c0,0.1,0.1,0.2,0.1,0.3c0,0.1,0,0.2-0.1,0.3
				c-0.1,0.1-0.2,0.1-0.4,0.2c0.1,0,0.1,0.1,0.1,0.1c0.1,0.1,0.1,0.1,0.2,0.2l0.3,0.5h-0.3l-0.2-0.4c-0.1-0.1-0.1-0.2-0.2-0.2
				c0-0.1-0.1-0.1-0.1-0.1c0,0-0.1,0-0.1,0c0,0-0.1,0-0.1,0h-0.3v0.8H400.6z M400.8,399.8h0.5c0.1,0,0.2,0,0.3,0s0.1-0.1,0.1-0.1
				c0,0,0-0.1,0-0.2c0-0.1,0-0.2-0.1-0.2c-0.1-0.1-0.2-0.1-0.3-0.1h-0.6V399.8z"/>
		</g>
	</g>
	<path class="st3" d="M245.7,413.5c0.6,0,1.1,0,1.7,0c0-0.2,0.1-0.3,0.1-0.5c0.2,0,0.4,0,0.7,0c0,0.2,0.1,0.3,0.1,0.5
		c0.6,0,1.2,0,1.8,0c0-0.2,0.1-0.3,0.1-0.4c0.3-0.2,0.7,0,0.8,0.4c0.6,0,1.1,0,1.7,0c0-0.2,0.1-0.3,0.1-0.5c0.4-0.1,0.8-0.2,0.7,0.5
		c0.6,0,1.2,0,1.8,0c0-0.1,0.1-0.3,0.1-0.5c0.2,0,0.4,0,0.7,0c0,0.1,0.1,0.3,0.1,0.5c1.5,0,3,0.2,4.3-1c-2,0.4-3.9,0.2-5.9,0.2
		c-12.3,0-24.5,0-36.8,0c-0.6,0-1-0.1-1.1-0.7c-0.1-0.5-0.3-0.8-0.9-0.9c-0.1,0-0.2-0.2-0.4-0.5c1.4,0,2.7,0,4,0c0-0.1,0-0.1,0-0.2
		c-0.2,0-0.3-0.1-0.5-0.1c-0.8,0-1.6,0-2.4,0c-0.3,0-0.5-0.1-0.6-0.4c-0.1-0.4-0.3-0.8-0.8-0.9c-0.1,0-0.2-0.2-0.4-0.5
		c0.6,0,1,0,1.6,0c-0.4-0.5-0.7-1-1.1-1.5c-0.1-0.1-0.3-0.2-0.5-0.2c-1.7-0.2-3.4-0.5-5.1-0.7c-0.2,0-0.4-0.1-0.6-0.1
		c0-0.1,0-0.1,0-0.2c0.2,0,0.3,0,0.5,0c0.8,0.1,1.6,0.2,2.3,0.3c0.5,0.1,0.9,0.1,1.3-0.3c0.1-0.1,0.2-0.1,0.3-0.2
		c0.7-0.5,0.7-0.5,0.4-1.4c-1.5-4-1.5-8,0.5-11.9c0.1-0.2,0.3-0.5,0.4-0.8c1.1,0.7,2.1,1.4,3.1,2c0.2,0.2,0.6,0.2,0.9,0.2
		c1.1,0,2.3-0.1,3.5-0.3c-0.3-0.2-0.6-0.3-0.8-0.4c0.2-0.2,0.4-0.4,0.6-0.6c1.4-1.6,1.6-3.7,2.1-5.7c0.1-0.3,0.1-0.7,0.2-0.9
		c-0.6-0.3-1.2-0.6-1.7-0.8c1-1,2.2-1.9,2.7-3.2c-0.7-0.3-1.2-0.5-1.7-0.7c0.2-0.2,0.4-0.3,0.6-0.5c0.7-0.9,1.4-1.9,2-2.8
		c0.6,0.1,1.1,0.2,1.6,0.4c0.7,0.3,1.2,0.1,1.7-0.5c2.6-2.9,5.2-5.7,7.8-8.5c0.2-0.2,0.3-0.4,0.4-0.6c0.3,0.2,0.6,0.4,1,0.5
		c5,2.2,10,4.3,15,6.5c0.3,0.1,0.5,0.1,0.8-0.2c0.6-0.8,1.2-1.7,1.9-2.6c1.8,1.8,3.5,3.7,5.3,5.5c6.5,6.4,13.1,12.8,19.6,19.3
		c0.4,0.4,0.8,0.7,1.3,0.3c0,0,0.1,0,0.2,0c0,0,0,0,0,0c-2.5,2.1-4.6,4.6-6.9,7c-2.3,2.3-4.6,4.7-6.9,7.1c-0.1,0.2-0.3,0.3-0.4,0.5
		c-0.1-0.1-0.3-0.2-0.5-0.3c-1.4-0.3-2.8-0.6-4.2-1c-0.5-0.1-0.8,0.1-1,0.5c-0.5,0.7-1,1.5-1.6,2.2c-0.5,0.6-1,1.1-1.1,1.9
		c0,0.1-0.2,0.2-0.3,0.3c-0.1,0-0.3,0-0.4,0c-13.8,0-27.6,0-41.5,0c-0.2,0-0.4,0-0.6,0c-0.2-1.1,0.5-2.2-0.2-3.2c0.8,0,1.6,0,2.5,0
		c-0.1,0.2-0.2,0.3-0.3,0.5c0.6,0,1.2,0,1.8,0c0,0,0-0.1-0.1-0.1c0.2-0.1,0.4-0.3,0.6-0.4c0.1,0,0.3,0.2,0.4,0.5c0.6,0,1.1,0,1.7,0
		c0-0.1,0.1-0.3,0.1-0.5c0.2,0,0.4,0,0.7,0c0,0.1,0.1,0.3,0.1,0.5c0.6,0,1.1,0,1.8,0c0-0.1,0.1-0.3,0.1-0.5c0.2,0,0.4,0,0.7,0
		c0,0.1,0.1,0.3,0.1,0.5c0.6,0,1.2,0,1.8,0c0-0.2,0-0.3,0.1-0.5c0.4,0,0.8-0.2,0.7,0.5c0.6,0,1.2,0,1.8,0c0-0.1,0.1-0.3,0.1-0.4
		c0.3-0.2,0.7,0,0.8,0.4c0.6,0,1.2,0,1.7,0c0,0,0-0.1-0.1-0.1c0.2-0.1,0.3-0.4,0.5-0.4c0.2,0,0.3,0.2,0.5,0.3c0,0,0,0.1-0.1,0.1
		c0.6,0,1.1,0,1.7,0c0-0.1,0.1-0.3,0.1-0.5c0.2,0,0.4,0,0.6,0c0,0.2,0.1,0.3,0.1,0.5c0.6,0,1.1,0,1.8,0c0-0.5,0.3-0.6,0.7-0.5
		c0,0.1,0.1,0.3,0.1,0.5c0.6,0,1.1,0,1.8,0c0-0.2,0.1-0.3,0.1-0.5c0.2,0,0.4,0,0.7,0c0,0.1,0.1,0.3,0.1,0.5c0.6,0,1.2,0,1.7,0
		c0,0,0-0.1-0.1-0.1c0.2-0.1,0.4-0.3,0.6-0.3c0.1,0,0.3,0.2,0.4,0.3C245.8,413.4,245.8,413.4,245.7,413.5z M268.9,404.2
		c0.3,0,0.6,0.2,0.8,0.1c1-0.4,2-0.9,2.9-1.4c0,0,0-0.1-0.1-0.1C271.3,403.3,270.1,403.7,268.9,404.2c-0.5,0.2-0.9,0.4-1.4,0.6
		c0.1,0.2,0.2,0.4,0.3,0.5C268.8,404.9,268.9,404.8,268.9,404.2z M261.9,409.9c0.4-0.1,0.8-0.2,1.3-0.3c0,0.4,0,0.6,0,1
		c0.7-0.2,0.9-0.8,1.4-1.2c-0.5,0-0.9,0-1.4,0.1C262.8,409.6,262.3,409.8,261.9,409.9c-0.9,0.5-1.9,0.9-2.9,1.5
		C260.3,411.6,261,411.2,261.9,409.9z M234.6,372.7c-0.1,0-0.1,0.1-0.2,0.1c-1.8,1.9-3.5,3.8-5.3,5.8c0,0,0,0.1,0,0.1
		c0.8,0.2,1.7,0.4,2.5,0.6c1.3,0.3,1.3,0.3,1.9-0.8c0.1-0.1,0-0.4,0.1-0.6c0.9-0.1,2.7-2.6,2.9-4.4
		C235.6,373.6,235.1,373,234.6,372.7c0.6,0,1.1,0,1.7-0.1c0.1,0,0.4-0.1,0.4-0.2c0.3-0.9,0.5-1.9,0.8-2.8c-0.6,0.5-1.2,1.1-1.7,1.7
		C235.4,371.7,235,372.2,234.6,372.7z M247.7,410.4c0.1-1.7,0.2-3.4,0.3-5c0-0.2-0.2-0.4-0.3-0.5c-1-0.9-2.1-1.7-3-2.6
		c-0.8-0.9-1.7-1.1-3-1.1c-1.6,0.1-3.2,0.1-4.6,1.1c0,0,0,0,0,0c-0.3,0.1-0.4,0.3-0.4,0.6c0,0.9,0,1.8,0,2.7c0,1.4,0,2.8,0,4.2
		c0.2,0.1,0.4,0.2,0.6,0.3c0.2,0.1,0.3,0.3,0.5,0.4c0.1,0.1,0.3,0.2,0.5,0.2C241.3,410.6,244.5,410.9,247.7,410.4z M260.6,392.5
		c0.9,1.7,1.9,3.3,2.7,4.9c0.4,0.7,0.8,1.1,1.6,0.9c0.1,0,0.2,0,0.3,0c0,0,0,0.1,0,0.1c-0.3,0.1-0.5,0.2-0.8,0.4
		c0,0.2,0,0.4,0.1,0.6c0.9,1.7,1.9,3.4,2.9,5.2c2.4-1,4.8-1.9,7.3-2.9c-6-5.6-11.9-11.2-17.8-16.7c1.2,1.7,2.5,3.4,3.8,5.1
		c0.5,0.7,1,1.2,1.9,1c0,0,0,0,0,0.1C261.9,391.6,261.3,392,260.6,392.5z M259.7,381.8c0.2,0.2,0.4,0.4,0.5,0.6
		c5.1,5.9,10.1,11.8,15.2,17.7c0.8,0.9,0.8,0.9,1.9,0.4c1.1-0.5,2.1-1.1,3.3-1.6c-0.2-0.2-0.3-0.3-0.4-0.4
		c-6.5-5.6-13-11.2-19.4-16.8C260.4,381.4,260.1,381.4,259.7,381.8z M276.1,401.2c-5.5-6.4-11-12.8-16.4-19.1
		c-1,0.3-1.9,0.6-2.9,0.9c-0.2,0.1-0.4,0.2-0.4,0.3c0,0.2,0.1,0.4,0.2,0.5c0,0,0,0.1,0,0.2c-0.1,0.1-0.2,0.1-0.3,0.2
		c0.1,0.1,0.2,0.2,0.3,0.3c5.9,5.5,11.7,11,17.6,16.5C275,401.8,275,401.8,276.1,401.2z M255.2,410.4c0.6,0,1.1,0,1.6-0.1
		c0.9-0.3,1.7-0.6,2.5-1c2-1.1,3.9-2.4,6-3.6c-0.2-0.2-0.3-0.3-0.5-0.4c-1.4-1.2-2.8-2.4-4.1-3.7c-0.5-0.5-1.1-0.7-1.8-0.5
		c-0.3,0.1-0.6,0.1-0.9,0.2c-0.9,0.1-1.8,0.2-2.8,0.3C255.2,404.5,255.2,407.4,255.2,410.4z M257,378.2c0.1,0.1,0.2,0.2,0.3,0.2
		c7.7,6.7,15.5,13.4,23.2,20c0.5,0.4,0.7,0.2,1.1-0.1c-8-7.8-15.9-15.6-23.8-23.3c0,0-0.1,0.1-0.1,0.1c0.6,0.6,0.9,1.4,1.7,2
		C258.6,377.5,257.8,377.8,257,378.2z M239,381.2c0.1,0,0.1,0.1,0.1,0.1c4.1,1,8.2,1.2,12.3,0.4c0.4-0.1,0.8-0.2,1-0.4
		c0.8-0.7,1.5-1.4,2.2-2.2c0.1-0.1,0.1-0.3,0.2-0.5c-0.4,0-0.7,0.1-1,0.1c-1.6-0.1-3.2,0-4.8-0.2c-3.3-0.4-6.4-1.7-9.2-3.4
		c-0.1-0.1-0.3-0.1-0.5-0.1c0.1,0.2,0.1,0.4,0.2,0.5c0.6,0.7,1.2,1.4,1.8,2.1c0.2,0.2,0.4,0.3,0.6,0.4C241,378.9,240,380,239,381.2z
		 M249.7,391.1c0,0,0-0.1,0-0.1c-3.8-3-7.6-6.1-11.5-9.1c0,0.2,0.1,0.3,0.2,0.5c1.3,2,2.7,3.9,3.9,5.9c0.4,0.7,0.8,1.2,1.7,1
		c0,0,0.1,0,0.1,0c-1.6,1-3.2,2-4.8,3.1c1.1,1,2.1,1.9,3.1,2.8c0.1,0.1,0.3,0.1,0.4,0.1c2.5-0.6,4.7-1.8,6.8-3.4
		c-0.1-0.2-0.2-0.4-0.3-0.5c-0.2-0.1-0.4-0.1-0.6-0.2c0,0,0-0.1,0-0.1C249.1,391.1,249.4,391.1,249.7,391.1z M239.8,374.2
		c0.1,0.1,0.2,0.1,0.3,0.2c2.3,1.1,4.6,1.9,7.1,2.3c1.7,0.3,3.4,0.3,5.1,0.4c0.7,0,1.3-0.1,1.6-1c-5.2-2.3-10.4-4.5-15.6-6.8
		c0.4,0.7,0.8,1.3,1.2,1.8c0.4,0.5,0.7,1.2,1.4,1.5c-0.1,0.1-0.2,0.1-0.2,0.2C240.3,373.3,240.1,373.8,239.8,374.2z M214.8,391.9
		c-2.4,4-2.2,9.5-0.4,12.9c0.5-0.4,1-0.8,1.5-1.2c0.3-0.2,0.4-0.5,0.4-0.8c-0.1-3-0.3-6-0.3-9C215.9,392.9,215.6,392.3,214.8,391.9z
		 M239.2,382.2c0,0,0,0.1-0.1,0.1c3.7,2.9,7.4,5.9,11.2,8.8c0.7-1,1.4-1.9,2.1-2.8C247.9,386.2,243.5,384.2,239.2,382.2z
		 M239.7,382.2c4.3,2,8.5,4,12.9,6c0.4-1.6,0.7-3,1.1-4.6C248.8,384.2,244.2,383.7,239.7,382.2z M216.5,393.1
		c0.3,3.2,0.6,6.3,0.9,9.5c1.2-1,2.4-1.9,3.4-2.7c-0.8-0.4-1.6-0.7-2.5-1.1c0,0,0-0.1,0-0.1c0.2,0,0.4,0,0.6,0c0.3,0,0.6,0,0.8-0.1
		c0.6-0.6,1.2-1.3,1.8-1.9C219.9,395.5,218.2,394.3,216.5,393.1z M257.1,411.2c-12.5,0-24.9,0-37.5,0c0.2,0.3,0.3,0.5,0.4,0.7
		c0.1-0.2,0.2-0.3,0.4-0.5c0.1,0,0.3,0,0.6,0c0,0.2,0.1,0.3,0.1,0.5c0.6,0,1.2,0,1.7,0c0.1-0.2,0.1-0.3,0.1-0.5c0.2,0,0.4,0,0.6,0
		c0,0.2,0.1,0.3,0.1,0.5c0.6,0,1.2,0,1.8,0c0-0.2,0.1-0.3,0.1-0.5c0.2,0,0.4,0,0.6,0c0,0.2,0.1,0.3,0.1,0.5c0.6,0,1.2,0,1.7,0
		c0-0.2,0.1-0.3,0.1-0.5c0.2,0,0.4,0,0.7,0c0,0.2,0,0.3,0.1,0.5c0.6,0,1.2,0,1.8,0c0-0.2,0.1-0.3,0.1-0.5c0.2,0,0.5,0,0.7,0
		c0,0.2,0.1,0.3,0.1,0.5c0.6,0,1.2,0,1.8,0c0-0.2,0.1-0.3,0.1-0.5c0.2,0,0.4,0,0.6,0c0,0.2,0.1,0.3,0.1,0.5c0.6,0,1.2,0,1.8,0
		c0-0.2,0.1-0.3,0.1-0.5c0.2,0,0.4,0,0.6,0c0,0.2,0.1,0.3,0.1,0.5c0.6,0,1.2,0,1.8,0c0-0.2,0.1-0.3,0.1-0.5c0.2,0,0.4,0,0.6,0
		c0,0.2,0.1,0.3,0.1,0.5c0.6,0,1.2,0,1.8,0c0-0.2,0.1-0.3,0.1-0.5c0.2,0,0.5,0,0.7,0c0,0.2,0.1,0.3,0.1,0.5c0.6,0,1.2,0,1.8,0
		c0-0.2,0.1-0.3,0.1-0.5c0.2,0,0.4,0,0.6,0c0,0.2,0.1,0.3,0.1,0.5c0.6,0,1.2,0,1.8,0c0-0.2,0-0.3,0.1-0.5c0.2,0,0.5,0,0.7,0
		c0,0.2,0,0.3,0.1,0.5c0.6,0,1.2,0,1.8,0c0-0.2,0.1-0.3,0.1-0.5c0.2,0,0.4,0,0.6,0c0,0.2,0.1,0.3,0.1,0.5c0.6,0,1.2,0,1.8,0
		c0-0.2,0.1-0.3,0.1-0.5c0.2,0,0.4,0,0.6,0c0.1,0.2,0.1,0.3,0.1,0.5c0.6,0,1.2,0,1.7,0c0-0.2,0.1-0.3,0.1-0.5c0.2,0,0.4,0,0.6,0
		c0,0.2,0.1,0.3,0.1,0.5c0.8,0,1.5,0,2.2,0C257.2,411.7,257.1,411.4,257.1,411.2z M242.8,389.3c-1.7-2.5-3.2-4.9-4.8-7.2
		c-0.1,0-0.1,0-0.2,0c-0.1,0.2-0.2,0.5-0.2,0.7c0,1.1,0,2.3,0,3.4c0,1.1,0,2.2,0,3.4c0.8,0,1.5,0,2.2,0c0.1,0,0.2,0,0.3,0
		c0.2-0.4,0.6-0.3,1-0.3C241.6,389.3,242.2,389.3,242.8,389.3z M251.5,392.6c-0.6-0.3-1.1-0.5-1.6-0.7c-2.1,1.7-4.4,2.9-7.1,3.7
		c0.6,0.7,1.2,1.3,2.2,1.1c0.8-0.1,1.6-0.1,2.4-0.1c0.4,0,0.8-0.1,1.3-0.2c-0.5-0.4-0.8-0.7-1.2-1c0,0,0.1-0.1,0.1-0.1
		c0.4,0.4,0.9,0.7,1.4,1.1c0.6-0.4,1.2-0.9,1.8-1.3c0.1-0.1,0.2-0.2,0.2-0.3C251.2,393.9,251.4,393.3,251.5,392.6z M281.3,399
		c-0.1,0-0.2,0-0.2,0c-1.5,0.8-2.9,1.5-4.4,2.3c-0.2,0.1-0.3,0.2-0.4,0.4c-2.4,3-4.9,6.1-7.3,9.1c-0.3,0.4-0.3,0.7-0.2,1.2
		C272.9,407.6,277.1,403.3,281.3,399z M260.2,400.9c1.7,1.5,3.4,3,5,4.5c0.1,0.1,0.3,0.1,0.4,0c0.5-0.3,1-0.5,1.5-0.8
		c-0.8-1.5-1.7-3-2.5-4.5c-0.6-1-0.6-1-1.5-0.4c-0.3,0.2-0.6,0.4-0.9,0.5C261.6,400.5,260.9,400.7,260.2,400.9z M256.1,397.1
		c0,0.1,0,0.1,0,0.2c0.7,0.7,1.4,1.5,2.5,1.3c0.4-0.1,0.7,0,1.1,0c0.1,0,0.3,0,0.3,0c0.3-0.5,0.8-0.3,1.2-0.3c0.6,0,1.2,0,1.8,0
		c-1.7-1.4-3.4-2.8-5.1-4.1c-0.1-0.1-0.3-0.2-0.4-0.1c-0.4,0.2-0.9,0.4-1.3,0.5c-0.1,0-0.2,0.2-0.2,0.2c0,0.5,0,1.1,0,1.6
		c0.3,0.1,0.5,0.1,0.7,0.1c0,0,0,0.1,0,0.1C256.6,396.8,256.4,397,256.1,397.1z M253.9,382.4c-0.5-0.2-0.9-0.2-1.2-0.5
		c-0.3-0.3-0.6-0.3-1-0.2c-3.2,0.7-6.4,0.7-9.6,0.3c-1-0.1-2-0.4-3.2-0.6c0.3,0.1,0.4,0.2,0.5,0.2c4.4,1.7,8.9,2.3,13.5,1.8
		C253.8,383.3,253.8,383.3,253.9,382.4z M255,377.9c-0.4-0.1-0.8-0.3-1.3-0.4c-0.3-0.1-0.5-0.2-0.8-0.3c-0.8,0-1.6,0.1-2.3,0
		c-3.7-0.2-7.1-1.2-10.4-2.7c-0.2-0.1-0.3-0.1-0.5-0.2c0.1,0.2,0.2,0.3,0.4,0.4c1.1,0.6,2.2,1.2,3.3,1.7c3.5,1.5,7.2,2.2,11.1,1.8
		C254.8,378.3,255,378.3,255,377.9z M228.4,400.9c-0.6,0.6-1.2,1.3-1.9,1.7c-0.9,0.6-1.3,1.4-1.1,2.5c0.1,0.4,0,0.9,0,1.4
		c0.7-0.2,1.2-0.4,1.7-0.5c0.4-0.1,0.5-0.3,0.6-0.6c0.3-1.1,0.6-2.2,1-3.3C228.9,401.6,228.9,401.2,228.4,400.9z M221,399.9
		c-0.7,0.6-1.4,1.1-2.1,1.7c-0.5,0.4-1.2,0.7-1.5,1.3c-0.2,0.5,0,1.3,0.1,1.9c0,0.6,0.1,1.2,0.2,2C219.1,404.5,221,402.6,221,399.9z
		 M248,405c0.1-1.4,0.2-2.8,0.3-4.1c-0.4-0.1-0.8-0.3-1.2-0.2c-1.1,0.2-2.3,0.4-3.5,0.6C245.1,402.5,246.5,403.7,248,405z
		 M256,384.8c0,1.6,0,3.1,0,4.6c0,0.2,0.2,0.4,0.3,0.5c0.7,0.4,1.4,0.7,2.1,1c0.3,0.1,0.6,0.1,1.1,0.2
		C258.4,389,257.2,387,256,384.8z M258,393.9c1.8,1.4,3.6,2.8,5.4,4.2c0,0,0.1,0,0.1-0.1c-1-1.8-2-3.6-3-5.4
		C259.6,393,258.8,393.5,258,393.9z M226.1,392.9c1.1-0.3,2-0.5,3-0.7c-1-1.6-2-3.1-3-4.7C226.1,389.4,226.1,391.1,226.1,392.9z
		 M238.1,395.5c1.4,0.2,2.8,0.3,4.3-0.1c-0.6-0.5-1.1-1-1.6-1.5c-0.5-0.5-1-0.9-1.5-1.4c-1.6,1-1.6,1-1.4,2.2c0.2,0,0.4,0.1,0.8,0.1
		C238.4,395.1,238.2,395.3,238.1,395.5z M236.7,400.8c1.9,0.7,3.4,0,4.8-1.1c-0.4-0.6-1-0.8-1.7-0.7c-0.6,0.1-1.2,0-1.9,0
		c-0.4,0-0.8,0-1.2,0C236.7,399.6,236.7,400.2,236.7,400.8z M230,405.3c-0.7,0.2-1.4,0.4-2,0.7c-0.1,0-0.2,0.2-0.3,0.3
		c-0.3,1-0.6,2-0.9,3c0.7,0,1.4,0.1,2.1,0.1C229.3,408.1,229.6,406.7,230,405.3z M226.8,381.9c0.7,0.6,1.4,1.3,2.1,1.9
		c0.1,0.1,0.3,0.1,0.5,0.1c1.1-0.3,1.2-1.5,1.9-2.2c-0.9-0.1-1.7-0.3-2.5-0.4c-0.1,0-0.2,0-0.3,0C228,381.5,227.4,381.7,226.8,381.9
		z M268.7,410.6c0,0,0.1,0,0.1,0c2.1-2.6,4.2-5.2,6.3-7.8c-2.1,1.9-4.1,3.9-6.2,5.8c-0.1,0.1-0.1,0.2-0.2,0.3
		C268.8,409.5,268.7,410,268.7,410.6z M232.6,387.5c-0.2-0.2-0.5-0.4-0.7-0.6c-0.3-0.3-0.5-0.3-0.8-0.1c-0.7,0.3-1.5,0.6-2.3,0.9
		c-0.3,0.1-0.7,0.2-1.2,0.4c1.3,0.4,2.4,0.7,3.5,1c0.1,0,0.4,0,0.4-0.1C232,388.5,232.3,388,232.6,387.5z M264.3,410.7
		c1.4,0.1,2.8,0.2,4.1,0.4c0-0.8,0-1.4,0-2.1C266.8,408.8,265.5,409.4,264.3,410.7z M235.1,389.5c0.5-2.1,0.9-4,1.3-5.9
		c0,0-0.1-0.1-0.1-0.1c-0.4,0.4-1,0.7-1.2,1.2c-0.4,1.2-0.6,2.4-0.9,3.6c0,0.1,0,0.3,0.1,0.4C234.5,389,234.8,389.2,235.1,389.5z
		 M232.6,379.7c-1.3-0.3-2.4-0.6-3.6-0.8c-0.1,0-0.3,0-0.3,0.1c-0.3,0.3-0.6,0.7-0.9,1c0.2,0.3,0.4,0.6,0.7,0.9
		c0.1,0.1,0.3,0.2,0.4,0.1C230,380.8,231.3,380.3,232.6,379.7z M239.1,375.1c-0.8,0.7-1.6,1.4-1.1,2.6c1.1,0,2.1,0,3.3,0
		C240.6,376.8,239.8,376,239.1,375.1z M231,391c-1.5-1.1-2.9-2.2-4.3-3.3c0.7,1.3,1.5,2.5,2.3,3.8c0.4,0.6,0.6,0.7,1.3,0.4
		C230.5,391.8,230.7,391.4,231,391z M265.8,406.3c-0.2-0.4-0.5-0.4-0.9-0.2c-1,0.6-2.1,1.2-3.1,1.9c-0.9,0.6-1.9,1.1-2.8,1.7
		c0,0,0,0.1,0,0.1c0.6-0.1,1.2-0.1,1.7-0.3c1.3-0.6,2.6-1.4,3.9-2.1c0-0.2-0.1-0.3-0.1-0.5C265,406.7,265.4,406.5,265.8,406.3z
		 M250,406.8c0.1,0,0.1,0,0.2,0c0.7-1.7,1.5-3.5,2.2-5.2c-0.8,0.1-0.4,0.9-0.9,1.4c0.1-0.5,0.2-1,0.3-1.5c-0.3,0-0.6-0.1-0.8-0.1
		c0,0.1-0.1,0.1-0.1,0.2c-0.3,1.5-0.7,3.1-1,4.6C249.7,406.3,249.9,406.6,250,406.8z M249.5,406.2c0.4-1.6,0.7-3.2,1.1-4.9
		c-0.3-0.1-0.6-0.1-0.9-0.1c-0.2,0.8-0.4,1.6-0.5,2.3c-0.1,0-0.1,0-0.2,0c0.2-0.8,0.3-1.5,0.5-2.4c-0.2,0-0.4,0-0.7-0.1
		c0,1.4,0,2.7,0,4C248.8,405.6,248.9,406,249.5,406.2z M229.1,401.6c-0.4,1.4-0.8,2.7-1.2,4.1c0.2-0.1,0.3-0.1,0.4-0.1
		c1.8-0.6,1.8-0.6,1.9-2.5c0-0.2,0-0.4-0.1-0.5C229.7,402.3,229.4,402,229.1,401.6z M231.8,404.3c0.2-1,0.4-1.9,0.6-2.9
		c0.3-1.2,0.3-1.2-1-1.6c-0.2,0.8-0.3,1.5-0.5,2.3C230.8,403,230.8,403.8,231.8,404.3z M231.5,386.5c-0.5-0.4-0.9-0.8-1.2-1.1
		c-0.3-0.3-0.5-0.2-0.8-0.1c-0.9,0.6-1.3,1.6-1.9,2.4c0,0.1,0.1,0.1,0.1,0.2C228.9,387.4,230.1,387,231.5,386.5z M241.9,399.7
		c0.5,0.4,0.9,0.8,1.3,1.1c0.1,0.1,0.2,0.1,0.3,0.1c1-0.1,2-0.3,3.1-0.4c-1.2-0.6-2.3-1-3.5-1.5c-0.1,0-0.3,0-0.3,0.1
		C242.5,399.3,242.2,399.5,241.9,399.7z M225.5,403.3c1-0.9,1.9-1.7,2.8-2.6c-0.3-0.3-0.5-0.6-0.7-0.8c-2.2,1-2.3,1.2-2.2,3.2
		C225.4,403.1,225.4,403.2,225.5,403.3z M225.4,409.1c1.2,0.2,1.2,0.2,1.5-0.8c0.1-0.3,0.2-0.5,0.2-0.8c0.1-0.4,0.3-0.9,0.4-1.4
		c-0.7,0.2-1.3,0.4-1.8,0.6c-0.1,0-0.3,0.2-0.3,0.3C225.4,407.7,225.4,408.4,225.4,409.1z M240.9,378.7c-1.1,0-2,0-3,0
		c0,0.6,0,1.1,0,1.6c0,0.3,0.2,0.5,0.4,0.7c0.1,0.1,0.4,0,0.5-0.1C239.5,380.3,240.2,379.5,240.9,378.7z M259,381.4
		c-0.9-1.1-1.8-2.1-2.7-3.1c0,1.1,0,2.1,0,3.1C257.2,381.4,258.1,381.4,259,381.4z M261.1,391c-1.5-1.9-3-3.9-4.5-5.8
		c0,0.2,0.1,0.3,0.1,0.5c0.8,1.5,1.7,2.9,2.5,4.4C259.6,390.9,260.1,391.3,261.1,391z M230.3,383.6c0,0,0.1,0.1,0.1,0.1
		c1-0.3,2-0.7,3-0.9c0.6-0.2,0.9-0.5,0.9-1.1c-0.8,0-1.7,0-2.5,0c-0.1,0-0.2,0.1-0.3,0.1C231,382.4,230.7,383,230.3,383.6z
		 M219.7,407.2c0.5-0.2,1-0.3,1.1-0.8c0.2-0.9,0.4-1.9,0.6-2.8c0.2-0.7,0.3-1.5,0.5-2.3c-0.5,0.5-0.9,1-1.1,1.6
		C220.3,404.3,220,405.7,219.7,407.2z M221.9,405.9c0.6-0.2,0.9-0.6,0.9-1.1c0.1-0.6,0.2-1.2,0.4-1.8c0.2-1.1,0.4-2.2,0.7-3.2
		c0,0-0.1-0.1-0.1-0.1c-0.2,0.1-0.6,0.2-0.6,0.4C222.7,401.9,222.3,403.9,221.9,405.9z M256.3,373.7c0,1.2,0,2.2,0,3.2
		c0.8,0,1.6,0,2.5,0C258,375.8,257.2,374.8,256.3,373.7z M237.9,372.6c0.8,0,1.6,0,2.4,0c-0.8-1.1-1.6-2.1-2.4-3.2
		C237.9,370.5,237.9,371.5,237.9,372.6z M230.3,385.1c0.4,0.4,0.8,0.7,1.2,1.1c0.1,0.1,0.2,0.1,0.3,0.1c1.1-0.3,1.9-1.2,1.9-2.4
		C232.5,384.2,231.4,384.7,230.3,385.1z M274.5,402.9C274.5,402.9,274.5,402.9,274.5,402.9c-1.7,1.2-3.3,2.4-5,3.6
		c-0.7,0.5-0.8,1-0.7,1.8C270.8,406.5,272.7,404.7,274.5,402.9z M222.9,399.8c-0.1,0-0.1-0.1-0.2-0.1c0,0.1-0.1,0.2-0.1,0.3
		c-0.5,0.6-0.6,1.3-0.7,2c-0.3,1.5-0.6,3-1,4.6c0.5-0.2,0.8-0.4,0.8-0.9c0.3-1.7,0.7-3.4,1-5C222.8,400.3,222.9,400,222.9,399.8z
		 M216.3,403.6c-0.7,0.6-1.3,1.1-1.9,1.5c0.6,1.5,0.8,1.6,1.9,1.5C216.3,405.7,216.3,404.7,216.3,403.6z M230.1,394
		c0,0,0.1-0.1,0.1-0.1c0.2,0.1,0.5,0.3,0.7,0.5c0.1-0.5,0.2-0.9,0.4-1.5c-0.3,0.1-0.5,0.2-0.7,0.2c-0.3,0.1-0.6,0.1-0.8,0.3
		c-0.5,0.8-0.9,1.6-1.4,2.4c0.2,0.1,0.3,0.3,0.4,0.4c0.7-0.5,1.3-1,2-1.5C230.5,394.5,230.3,394.3,230.1,394z M226.2,396.7
		c0.2,0,0.4,0.1,0.5,0.1c0.3,0,0.7,0.2,0.8,0.1c0.3-0.3,0.4-0.7,0.6-1c0,0-0.1-0.1-0.1-0.2c-0.6-0.6-1.2-1.1-1.8-1.7
		C226.2,395,226.2,395.8,226.2,396.7z M259.6,400.9c0-0.1,0-0.1,0-0.2c-0.2-0.1-0.4-0.4-0.6-0.4c-1.3,0-2.5,0-3.8,0
		c0,0.4,0,0.7,0,1.1C256.7,401.2,258.1,401,259.6,400.9z M231.6,381.6c0.9,0,1.7-0.1,2.4-0.1c0.1,0,0.3-0.1,0.3-0.2
		c0.1-0.3,0.2-0.7,0.3-1c-0.6-0.1-1.1-0.3-1.6-0.4c-0.1,0-0.3,0.1-0.4,0.2C232.4,380.4,232.1,380.9,231.6,381.6z M233.3,392.9
		c-0.2,0.3-0.3,0.6-0.5,0.9c-0.1,0.3-0.1,0.7-0.2,0.9c-0.3,0.6,0,0.9,0.4,1.2c0.4,0.3,0.6,0.2,0.7-0.2c0.1-0.5,0.2-1,0.4-1.5
		C234.3,393.6,234,393.2,233.3,392.9z M274.5,402.6C274.5,402.6,274.4,402.5,274.5,402.6c-1.5,0.7-2.9,1.4-4.3,2.1
		c-0.8,0.4-0.9,0.6-0.7,1.6C271.2,405.1,272.8,403.8,274.5,402.6z M239.2,392.3c0.8-0.5,1.5-1,2.3-1.5c-1.3,0-2.6,0-3.8,0
		c0,0,0,0.1-0.1,0.1C238.2,391.4,238.7,391.8,239.2,392.3z M220.3,403.5C220.3,403.5,220.2,403.5,220.3,403.5
		c-0.9,1.1-1.6,2.2-2.4,3.4c0.6,0.1,1.1,0.1,1.6,0.2C219.7,405.9,220,404.7,220.3,403.5z M229.6,384.4c0,0.1,0,0.2,0.1,0.3
		c0.3,0,0.5,0.2,0.7,0.1c1-0.3,2-0.7,3-1.1c0.4-0.1,0.5-0.4,0.5-0.8c-1.1,0.3-2.3,0.6-3.4,1C230.2,384,229.9,384.2,229.6,384.4z
		 M216.2,392.9c-0.1,0-0.1,0-0.2,0c0.2,3.4,0.3,6.7,0.5,10.1c0.1,0,0.1,0,0.2,0c0.1-0.2,0.2-0.4,0.2-0.6c-0.2-3-0.5-6.1-0.7-9.1
		C216.3,393.2,216.3,393.1,216.2,392.9z M229.3,393.8c-1,0-1.9,0-2.9,0c0,0,0,0.1,0,0.1c0.6,0.6,1.2,1.1,1.9,1.7
		C228.7,395,229,394.4,229.3,393.8z M247.7,400.3c-0.6-0.2-1-0.3-1.4-0.5c-0.4-0.2-0.8-0.4-1.1-0.6c-0.4-0.3-0.7-0.5-1-0.7
		c0.8-0.2,1.5,0.2,2.2-0.3c-1.1,0-2.3-0.3-3.1,0.9c1.3,0.5,2.5,0.9,3.8,1.3C247.2,400.4,247.4,400.3,247.7,400.3z M226.5,387
		c0,0-0.1,0.1-0.2,0.2c0.3,0.2,0.6,0.4,0.9,0.7c0.5-0.7,0.9-1.4,1.4-2.1c-0.8,0-1.5,0-2.3,0C226.3,386.2,226.4,386.6,226.5,387z
		 M225.4,388c-1.3,1.4-1.1,3.3-1.7,5c0.4,0.1,0.6,0.1,0.7-0.3C224.7,391.1,225.1,389.5,225.4,388z M231.7,404.8c0,0-0.1-0.1-0.1-0.1
		c-0.2,0.2-0.6,0.3-0.6,0.5c-0.1,1.3,0,2.6,0,4c0.4-1.3,0.9-2.5,1.3-3.8c0-0.1-0.1-0.3-0.2-0.5c-0.2,1-0.4,1.8-0.6,2.6
		c-0.1,0-0.1,0-0.2,0C231.3,406.5,231.5,405.6,231.7,404.8z M255.2,384.8c-0.5,0.6-1.1,1.1-1.2,2c0,0.4-0.2,0.8-0.3,1.2
		c-0.2,0.7-0.2,0.7,0.6,0.9C254.7,387.6,254.9,386.2,255.2,384.8z M232,404.2c0,0,0.1,0.1,0.1,0.1c0.1-0.1,0.4-0.2,0.4-0.3
		c0.4-1.1,0.8-2.2,1.1-3.3c-0.3-0.1-0.6-0.2-0.9-0.3C232.6,401.7,232.3,402.9,232,404.2z M226.3,384.5c0.7-0.1,1.3-0.2,2-0.3
		c-0.7-0.8-1.3-1.5-2-2.2C226.3,382.8,226.3,383.6,226.3,384.5z M235.5,377.9c0.5-0.3,1-0.4,1.1-0.9c0.3-1,0.5-2,0.7-3
		C236.1,374.9,235.8,376.4,235.5,377.9z M263.9,410.8c0,0.1,0,0.1,0,0.2c1.5,0.4,3.1,0.7,4.6,1.1c0-0.3,0-0.6,0-0.9
		C266.9,411.1,265.4,411,263.9,410.8z M243.9,397c0,0,0-0.1,0-0.1c-1-0.1-2-0.2-3-0.3c-1-0.2-2-0.4-3-0.6c0.7,0.5,1.4,0.9,2.1,1.3
		c0.3,0.1,0.8,0.2,0.9,0c0.3-0.4,0.6-0.3,0.9-0.3C242.5,397,243.2,397,243.9,397z M231.4,390.1c-0.4-0.3-0.8-0.5-1.2-0.8
		c0.3,0,0.4,0,0.6,0c0,0,0-0.1,0-0.1c-0.9-0.3-1.8-0.5-2.8-0.8c0,0,0,0.1-0.1,0.1c1,0.8,2,1.5,3,2.3
		C231.2,390.5,231.3,390.3,231.4,390.1z M218.7,394.1c0,0,0,0.1,0,0.1c0.4,0.3,0.7,0.5,1.1,0.8c0.1,0.1,0.3,0.1,0.4,0.1
		c0.7-0.3,1.3-0.5,2-0.8c0.1,0,0.2-0.1,0.4-0.1c-0.1-0.1-0.1-0.2-0.2-0.3C221.2,394,219.9,394,218.7,394.1z M256.4,392.6
		c0,0,0,0.1,0,0.1c0.4,0.3,0.8,0.6,1.2,0.9c0.1,0.1,0.2,0.1,0.3,0.1c0.7-0.3,1.4-0.7,2.1-1.1c0,0,0,0-0.1-0.1
		C258.8,392.6,257.6,392.6,256.4,392.6z M237,383c-0.4,0.2-1.7,5.2-1.7,6.7c0.1-0.1,0.3-0.2,0.3-0.4c0.3-1.6,0.6-3.2,0.9-4.7
		c0-0.2,0.1-0.3,0.1-0.5c0,0,0.1,0,0.1,0c-0.1,0.5-0.2,1-0.2,1.5c0.1,0,0.1,0.1,0.2,0.1c0.1-0.1,0.3-0.2,0.3-0.3
		C237.1,384.6,237,383.8,237,383z M243.5,396.7c-0.5-0.8-1.1-1.3-2-0.9c-0.1,0-0.2,0-0.3,0c-0.9,0-1.8,0-2.7,0c0,0.1,0,0.1,0,0.2
		C240.2,396.2,241.9,396.5,243.5,396.7z M242.9,401.1c0,0,0-0.1,0-0.1c-0.4-0.3-0.8-0.7-1.1-1c-0.1-0.1-0.2-0.1-0.3,0
		c-0.6,0.4-1.3,0.7-1.9,1.1C240.8,401.1,241.9,401.1,242.9,401.1z M249.3,408.2c-0.1,0-0.1,0-0.2,0c0.1-0.4,0.1-0.8,0.3-1.1
		c0.2-0.5,0-0.8-0.6-1c0,1.3,0,2.6,0,4c0.4-1,0.8-1.9,1.1-2.8c0.1-0.1-0.1-0.4-0.2-0.5c-0.1,0-0.1,0-0.2,0
		C249.5,407.3,249.4,407.7,249.3,408.2z M230.2,402.4c0.1-1,0.2-2,0.2-2.9c-0.4,0.1-0.7,0.1-0.9,0.5
		C229.2,401,229,401.8,230.2,402.4z M254.6,383.5c0-0.1-0.1-0.1-0.1-0.2c-0.2,0.1-0.6,0.2-0.6,0.4c-0.3,1.1-0.5,2.2-0.8,3.4
		C254.2,386.2,254.2,384.8,254.6,383.5z M224.6,399.6c-0.3,0.1-0.6,0.2-0.6,0.4c-0.2,0.8-0.4,1.7-0.5,2.5c0.1,0,0.1,0.1,0.2,0.1
		c0.6-0.2,0.2-1,0.6-1.4c0,0.5-0.1,1-0.1,1.4c0.1,0,0.1,0.1,0.2,0.1c0.1-0.1,0.3-0.2,0.3-0.4C224.7,401.4,224.6,400.6,224.6,399.6z
		 M235,401.4c0.1-0.8,0.2-1.6,0.3-2.5c-0.4,0.1-0.7,0.2-0.8,0.3c-0.3,0.7-0.5,1.4-0.8,2.2c0.4,0.1,0.6,0,0.6-0.3
		c0.1-0.4,0.2-0.8,0.3-1.1c0.1,0,0.1,0,0.2,0c-0.1,0.5-0.2,1-0.3,1.5C234.7,401.4,234.8,401.4,235,401.4z M235.9,390.8
		c-0.9,0-1,0.1-1,0.8c0.3-0.2,0.6-0.4,0.8-0.6c0,0,0.1,0.1,0.1,0.1c-0.1,0.1-0.2,0.2-0.3,0.3c-0.7,0.3-0.9,0.9-1,1.6
		c-0.1,0.4,0.1,0.6,0.4,0.7c0.1-0.7,0.3-1.3,0.4-1.9c0,0,0.1,0,0.1,0c0,0.2,0,0.4-0.1,0.7c0.2,0,0.3,0,0.5,0
		C235.9,392,235.9,391.4,235.9,390.8z M225,385.9c0-0.1-0.1-0.1-0.1-0.2c-0.2,0.1-0.4,0.2-0.4,0.3c-0.3,1.3-0.6,2.6-0.9,4.1
		C224.8,388.9,224.6,387.3,225,385.9z M234.7,385.1C234.7,385.1,234.6,385.1,234.7,385.1c-0.6,0.8-1.2,1.6-1.8,2.4
		c0.3,0.3,0.6,0.6,1,0.9C234.2,387.2,234.4,386.2,234.7,385.1z M244.5,396.9C244.5,396.9,244.5,397,244.5,396.9
		c0.5,0.1,1,0.1,1.6,0.1c0,0,0,0.1,0,0.1c-0.3,0.2-0.6,0.3-1,0.5c1.3,0.3,2.3-0.1,3.1-1C247,396.8,245.7,396.8,244.5,396.9z
		 M253.9,391.4c0.2-0.7,0.3-1.5,0.4-2.2c-0.3-0.1-0.5-0.2-0.7-0.3c-0.2,0.9-0.4,1.7-0.6,2.5C253.3,391.4,253.6,391.4,253.9,391.4z
		 M258.6,391.4c0-0.1,0-0.1,0.1-0.2c-0.8-0.4-1.7-0.8-2.5-1.2c0,0.5,0,0.9,0,1.3C257,391.4,257.8,391.4,258.6,391.4z M222.3,394.4
		c-0.8,0.3-1.4,0.6-2.1,0.9c0.6,0.4,1.1,0.7,1.7,1.1C222,395.7,222.2,395.1,222.3,394.4z M252.7,388.5c-0.2,0.8-0.4,1.7-0.6,2.5
		c0.3,0,0.5,0.1,0.8,0.1c0.1-0.6,0.2-1.2,0.4-1.8C253.5,388.8,253.2,388.6,252.7,388.5z M267.2,406.8c-0.7,0.8-1.3,1.4-2,2.2
		c1.2,0.1,1.7-0.8,2.4-1.2C267.5,407.5,267.4,407.2,267.2,406.8z M235.5,395.3c-0.9,0.1-1.3,0.7-2,1c0.5,0.4,0.9,0.7,1.3,1
		C235.1,396.6,235.3,396,235.5,395.3z M222.9,393.1c0.3-0.1,0.6-0.2,0.7-0.3c0.3-1,0.5-2.1,0.7-3.2
		C223.3,390.6,223.1,391.8,222.9,393.1z M225.2,390.6c0.1,0,0.1,0,0.2,0c0,0.3,0,0.5-0.1,0.9c0.2-0.2,0.4-0.3,0.4-0.3c0-1,0-2,0-3
		c0,0-0.1,0-0.1,0c-0.3,1.6-0.7,3.2-1,4.8c0.1,0,0.1,0,0.2,0C224.9,392.2,225,391.4,225.2,390.6z M252.5,388.6
		C252.4,388.6,252.4,388.6,252.5,388.6c-0.7,0.7-1.3,1.5-1.9,2.4c0.5,0,0.9,0,1.3,0C252.1,390.2,252.3,389.4,252.5,388.6z
		 M230.3,409.5c0.1,0,0.1-0.1,0.2-0.1c0-1.4,0-2.9,0-4.4c-0.1,0.1-0.3,0.2-0.3,0.4c-0.1,1.3-0.2,2.5-0.2,3.8
		C230,409.3,230.2,409.4,230.3,409.5z M229.2,381.2C229.2,381.2,229.2,381.2,229.2,381.2c0.7,0.2,1.4,0.2,2.1,0.3
		c0.1,0,0.2-0.1,0.2-0.1c0.3-0.4,0.5-0.8,0.8-1.2C231.3,380.5,230.3,380.8,229.2,381.2z M255.7,378.3c-1.2,0.8-0.9,2-1.3,3
		c0.2,0,0.6,0,0.6-0.2C255.3,380.3,255.5,379.4,255.7,378.3z M231.1,394.5c0.6-0.4,1.1-0.8,1.6-1.2c0.3-0.3,0.3-0.9,0.1-0.9
		c-0.5,0.1-1,0.3-1.3,0.6C231.2,393.4,231.2,394,231.1,394.5z M254.6,379.7c-0.5,0.5-1.2,1.1-1.9,1.7c0.4,0,0.8,0,1.2,0
		c0.1,0,0.3-0.2,0.4-0.3C254.4,380.5,254.5,380,254.6,379.7z M227.5,380c-0.4-0.5-0.7-1-1.1-1.5c0,0.9,0,1.8,0,2.7
		C226.8,380.7,227.1,380.4,227.5,380z M253.4,393.4c-1.2,0.4-1.2,1.3-1.3,2.3c0.6,0,1-0.2,1-0.9
		C253.2,394.3,253.3,393.9,253.4,393.4z M233.9,409.7c0.1-0.5,0.2-0.9,0.2-1.3c-0.5,0-0.9,0-1.3,0c-0.1,0.4-0.1,0.8-0.2,1.2
		C233.1,409.7,233.5,409.7,233.9,409.7z M217.3,406.7c-0.1-1.2-0.2-2.4-0.3-3.6c-0.1,0-0.1,0-0.2,0c-0.1,0.2-0.2,0.4-0.2,0.6
		c0,0.9,0.1,1.8,0.1,2.7C216.8,406.8,217,406.8,217.3,406.7z M260.3,381.3c-1.1-1-2.2-1.9-3.3-2.8c0.6,0.9,1.3,1.6,1.9,2.4
		C259.3,381.4,259.7,381.5,260.3,381.3z M233.6,385.1c1-0.4,1.6-1,1.5-2.1C234,383.4,233.8,383.6,233.6,385.1z M224.1,381.1
		c0.4,0,0.7,0,0.9,0c0.2,0,0.4-0.2,0.4-0.3c0.2-0.7,0.3-1.3,0.5-2c-0.1,0-0.2,0.1-0.2,0.2C225.2,379.6,224.7,380.3,224.1,381.1z
		 M232.6,408.5c-1.4-0.1-1.3-0.3-1.6,1C232.7,409.7,232.3,409.7,232.6,408.5z M254.7,389.2c0.1,0,0.1,0,0.2,0
		c0.1-0.8,0.2-1.5,0.3-2.3c0,0,0.1,0,0.1,0c0,0.4-0.1,0.8-0.1,1.2c0.3-0.3,0.4-3.2,0.2-3.7c0,0.2,0,0.5-0.1,0.7
		c-0.2,1.2-0.5,2.4-0.7,3.5C254.6,388.8,254.7,389,254.7,389.2z M254.3,376.1c0.4,0.2,0.7,0.3,1,0.4c0.2-0.9,0.4-1.6,0.6-2.4
		c0,0-0.1,0-0.1,0C255.3,374.7,254.8,375.3,254.3,376.1z M248.4,405.6c-0.1,0-0.1,0-0.2,0c-0.1,1.5-0.2,3-0.2,4.5
		c0,0.1,0.1,0.2,0.2,0.3c0.1-0.1,0.2-0.2,0.2-0.4c0.1-1.3,0.1-2.6,0.1-3.9C248.5,405.9,248.5,405.8,248.4,405.6z M230.7,395.2
		c0,0-0.1,0-0.1-0.1c-0.5,0.4-1,0.8-1.6,1.2c0.2,0.2,0.4,0.4,0.6,0.5c0.2,0.1,0.6,0.3,0.7-0.1C230.4,396.3,230.5,395.7,230.7,395.2z
		 M231.2,395.1c0,0.7,0,1.3,0,1.8c0.2,0.1,0.4,0.2,0.6,0.3C232.3,395.8,232.3,395.6,231.2,395.1z M234.4,408.5
		c0,0.4-0.1,0.8-0.1,1.3c0.4,0,0.7,0.1,1,0.1c0.1,0,0.2,0,0.3,0C235.7,409.1,235.1,408.4,234.4,408.5z M263.1,409.2
		c1.5,0.3,2.3-0.5,3-1.7C265.1,408.1,264.2,408.6,263.1,409.2z M250.2,399.3c0.1,0.3,0.2,0.6,0.3,0.6c0.5,0.1,1,0.1,1.5,0
		c0.1,0,0.2-0.4,0.3-0.6C251.5,399.3,250.9,399.3,250.2,399.3z M252.5,392.6c-0.3,0-0.5,0-0.8,0c-0.1,0.6-0.3,1.3-0.5,1.9
		C252.3,394.2,252.5,393.5,252.5,392.6z M252.9,395.8c-1,0.1-1.1,0.2-1.2,1.6c0.8,0.1,0.8,0,1-0.7
		C252.8,396.4,252.9,396.1,252.9,395.8z M259.2,399.3c-0.7,0-1.3,0-2,0c0.1,0.3,0.2,0.6,0.3,0.6c0.5,0,1,0,1.5,0
		C259,399.8,259.1,399.5,259.2,399.3z M259.2,399.2c0.1,0.3,0.2,0.6,0.3,0.6c0.5,0.1,1,0,1.5,0c0.1,0,0.2-0.3,0.2-0.4
		c0-0.1-0.2-0.2-0.3-0.2C260.4,399.2,259.9,399.2,259.2,399.2z M234.3,399c-0.4,0-0.7,0-1.1,0c-0.1,0.4-0.2,0.8-0.3,1.2
		c0.3,0.1,0.6,0.2,0.9,0.3C234,399.9,234.1,399.5,234.3,399z M255.1,399.2c0.2,0.3,0.2,0.6,0.3,0.7c0.5,0,1,0,1.4,0
		c0.1,0,0.2-0.3,0.2-0.4c0-0.1-0.2-0.2-0.3-0.2C256.2,399.2,255.7,399.2,255.1,399.2z M232.4,389.4c0.5-0.2,1,0.3,1.3-0.3
		c0.2-0.4-0.1-0.8-0.9-1.2C232.7,388.3,232.6,388.8,232.4,389.4z M226.6,378.3C226.6,378.4,226.6,378.4,226.6,378.3
		c0.3,0.6,0.6,1,1,1.5c0.3-0.4,0.6-0.7,1-1.1C227.8,378.6,227.2,378.5,226.6,378.3z M235.8,380.2c0.1-0.5,0.2-1,0.3-1.4
		c-0.9-0.2-1-0.1-1.2,1.2C235.2,380.1,235.5,380.1,235.8,380.2z M221.8,396.9C221.7,396.9,221.7,396.9,221.8,396.9
		c-0.6,0.5-1.1,1.1-1.7,1.6c0.4,0,0.7,0,1.1,0c0.1,0,0.3-0.2,0.3-0.3C221.6,397.8,221.7,397.4,221.8,396.9z M237,378.8
		c-0.7-0.1-0.8,0.2-0.9,1.5c0.3,0.1,0.6,0.1,0.9,0.2C237,379.9,237,379.3,237,378.8z M238,398c0.1,0.3,0.2,0.6,0.3,0.6
		c0.5,0,1,0,1.5,0c0.1,0,0.1-0.3,0.2-0.6c-0.6,0-1.2,0-1.7,0C238.3,397.9,238.2,397.9,238,398z M224,394.7c-0.7,0.5-0.7,0.5-1,1.9
		c-0.1,0.4,0,0.6,0.5,0.7C223.6,396.5,223.8,395.6,224,394.7z M238.5,397.3c0,0,0-0.1,0.1-0.1c-0.6-0.2-0.9-1.2-1.8-0.8
		c0,0.3,0,0.6,0,0.9C237.3,397.3,237.9,397.3,238.5,397.3z M230.6,398c0.1,0.3,0.2,0.6,0.3,0.6c0.5,0.1,1,0.1,1.5,0
		c0.1,0,0.1-0.4,0.2-0.6C231.9,398,231.3,398,230.6,398z M232.7,398c0.1,0.3,0.2,0.6,0.3,0.6c0.5,0,1,0,1.5,0c0.1,0,0.1-0.4,0.2-0.6
		C234,398,233.4,398,232.7,398z M257.6,393.8c-0.5-0.4-1-0.7-1.4-1.1c0,0.6,0,1.1,0,1.7C256.6,394.2,257,394.1,257.6,393.8z
		 M239,374.9c-0.4-0.4-0.7-0.8-1-1.2c0,0.8,0,1.5,0,2.3C238.3,375.6,238.6,375.3,239,374.9z M239.1,392.4c-0.4-0.4-0.8-0.8-1.3-1.2
		c0,0.7,0,1.3,0,2C238.2,393,238.6,392.7,239.1,392.4z M220.8,401.9c0.5-0.7,1.2-1.2,1.2-2.3c-0.3,0.1-0.7,0.1-0.7,0.3
		C221.1,400.6,221,401.3,220.8,401.9z M251.7,396.1c-0.9,0.1-1.1,0.3-1.1,1.4C251.6,397.6,251.7,397.5,251.7,396.1z M232.9,407.2
		c-1.2-0.2-1.3-0.1-1.5,1c0.4,0,0.8,0,1.2,0C232.8,407.9,232.9,407.6,232.9,407.2z M252.4,398.6c0.7,0,1.3,0,1.9,0
		c0-0.4,0-0.8,0-1.2C253.7,397.8,253.1,398.2,252.4,398.6z M254.2,401.3c0.1-0.4-0.4-1-0.8-1c-0.6,0-0.4,0.7-0.8,1
		C253.2,401.3,253.7,401.3,254.2,401.3z M236.7,402.3c0.7-0.3,1.3-0.6,1.8-0.9c0,0,0-0.1,0-0.1c-0.6-0.1-1.2-0.1-1.8-0.2
		C236.7,401.5,236.7,401.9,236.7,402.3z M256,378.5C255.9,378.5,255.9,378.5,256,378.5c-0.3,0.9-0.5,1.9-0.7,2.9c0.3,0,0.5,0,0.7,0
		C256,380.4,256,379.5,256,378.5z M268.5,407.4c-0.6,0.5-1.2,0.9-1.8,1.3c0,0,0,0.1,0,0.1c0.6-0.1,1.1-0.1,1.7-0.2
		C268.5,408.3,268.5,407.9,268.5,407.4z M256,397.5c-0.2,0.4-1.1,0.3-0.7,1.1c0.6,0,1.2,0,1.9,0C256.7,398.1,256.4,397.8,256,397.5z
		 M254.2,393.7c0.1,0,0.1,0,0.2,0c0-0.3,0-0.7,0-1.1c-1.2,0.7-0.8,1.8-1.1,2.7c0.6-0.5,0.4-1.3,0.7-1.9
		C254.1,393.6,254.2,393.6,254.2,393.7z M234.2,377.8c0.4,0,0.6,0,0.8,0c0.1,0,0.3-0.1,0.4-0.3c0.2-0.5,0.3-1.1,0.5-1.7
		c-0.2,0.2-0.3,0.3-0.3,0.4C235.1,376.7,234.7,377.2,234.2,377.8z M233,399c-0.2,0-0.4,0-0.5,0c-0.3,0-0.5,0-0.8,0
		c-0.3,0.7-0.2,0.8,1,1.1C232.8,399.7,232.9,399.4,233,399z M229.1,384.9c-0.3-0.3-0.5-0.6-0.7-0.6c-0.7,0-1.3,0.2-2,0.3
		c0,0-0.1,0.1-0.1,0.2C227.2,384.9,228.1,384.9,229.1,384.9z M248.7,401c-0.1,0-0.2,0-0.3,0c-0.1,1.5-0.1,2.9-0.2,4.4
		c0.1,0,0.2,0,0.2,0C248.6,403.9,248.7,402.4,248.7,401z M214.2,405.3c-0.4,0.4-0.8,0.7-1.3,1c0.7,0.1,1.3,0.2,1.9,0.2
		C214.6,406.1,214.5,405.7,214.2,405.3z M251,395.9c0.9-0.1,1.1-0.3,1.1-1.6C251.4,394.6,251,395.1,251,395.9z M224.8,384.5
		c0.1,0,0.1,0.1,0.2,0.1c0.1-0.1,0.4-0.2,0.4-0.4c0.2-0.7,0.3-1.4,0.5-2.2C224.9,382.8,225.1,383.7,224.8,384.5z M234.7,380
		c0.1-0.4,0.2-0.8,0.3-1.2c0,0-0.1-0.1-0.1-0.1c-0.5,0.3-1.1,0.6-1.7,1C233.8,379.8,234.2,379.8,234.7,380z M227,392.9
		C227,393,227,393,227,392.9c0.9,0.1,1.7,0.1,2.6,0.1c0,0,0.1-0.1,0.1-0.1c-0.2-0.2-0.4-0.5-0.6-0.4
		C228.4,392.5,227.7,392.8,227,392.9z M232.6,393.7c0,0-0.1,0-0.1-0.1c-0.4,0.3-0.8,0.7-1.3,1c0.4,0.3,0.7,0.5,1,0.7
		C232.4,394.8,232.5,394.3,232.6,393.7z M232.9,408.2c0.4,0,0.7,0,1,0c0.4,0,0.4-0.3,0.3-0.5c-0.1-0.2-0.4-0.5-0.7-0.6
		c-0.4-0.1-0.5,0.2-0.5,0.5C233,407.8,233,408,232.9,408.2z M234.3,393.7c-0.2,0.7-0.3,1.4-0.5,2.2c0.3-0.2,0.6-0.4,0.7-0.5
		c0.1-0.3,0.1-0.5,0.2-0.7C234.8,394.3,235,393.9,234.3,393.7z M224.9,383.2C224.9,383.2,224.8,383.2,224.9,383.2
		c-0.6,0.5-1.1,1-1.6,1.6c0.4,0,0.8-0.1,1.1-0.1c0.1,0,0.3-0.1,0.3-0.3C224.7,384,224.8,383.6,224.9,383.2z M235.8,399
		c-0.1,0-0.1,0-0.2,0c-0.2,0.8-0.2,1.6-0.2,2.4c0.2-0.1,0.4-0.2,0.4-0.3C235.8,400.4,235.8,399.7,235.8,399z M222,396.9
		c-0.1,0.6-0.2,1.1-0.4,1.6c0.3-0.1,0.7,0.2,0.8-0.3C222.7,397.3,222.7,397.3,222,396.9z M249,410.3c1.1,0.1,1.2,0.1,1.3-0.9
		C249.3,409.3,249.2,409.4,249,410.3z M235.6,408.2c0-0.3,0-0.6,0-0.9c-0.4,0-0.7,0-1.1,0C234.5,407.9,234.9,408.3,235.6,408.2z
		 M255.6,383.4c-0.1-0.1-0.1-0.2-0.2-0.2c-0.2,0.2-0.5,0.3-0.6,0.5c-0.2,0.5-0.3,1.1-0.4,1.7c0.8-0.8,1-1.1,0.8-1.5
		C255.3,383.7,255.5,383.6,255.6,383.4z M223.2,409c0-0.4,0.1-0.7,0.1-1c-0.4,0-0.6-0.1-0.9-0.1c-0.1,0.4-0.1,0.7-0.2,1.1
		C222.5,409,222.8,409,223.2,409z M233.2,385.6c-0.5,0.3-1,0.5-1.4,0.8c0.3,0.3,0.6,0.6,1,0.9C232.9,386.8,233,386.3,233.2,385.6z
		 M236.9,390.8c-0.3,0.2-0.4,2-0.2,3.1C237,393.7,237.2,391.6,236.9,390.8z M240.3,397.8c-0.1,0.1-0.1,0.1-0.2,0.2
		c0.1,0.2,0.1,0.5,0.3,0.5c0.5,0.3,1,0.2,1.5-0.2C241.4,398.2,240.8,398,240.3,397.8z M252.6,410.4c0-0.3,0.1-0.6,0.1-0.9
		c-1.1-0.1-1.1-0.1-1.1,0.9c0.1,0,0.3,0,0.4,0C252.2,410.4,252.4,410.4,252.6,410.4z M234.6,381.4c1-0.1,1-0.1,1.2-0.9
		c-0.3-0.1-0.6-0.1-0.9-0.2c-0.1,0.3-0.2,0.6-0.3,0.9C234.6,381.2,234.6,381.2,234.6,381.4z M230.1,393c1.1,0,1.4-0.3,1.4-1.1
		C230.5,392,230.4,392.1,230.1,393z M222.2,395.9c0.9-0.6,1-0.9,1-1.9C222.1,394.3,222.5,395.3,222.2,395.9z M227.3,397.5
		c-0.4-0.1-0.9-0.6-1.2-0.1c-0.3,0.5,0.3,0.7,0.6,1.1C226.9,398.1,227.1,397.8,227.3,397.5z M227.4,397.7c-0.2,0.3-0.3,0.5-0.4,0.8
		c0.7,0,1.3,0,1.9,0c0,0,0-0.1,0-0.1C228.4,398.1,227.9,397.9,227.4,397.7z M221.6,407.5c0.3-0.1,0.6-0.2,0.7-0.3
		c0.2-0.4,0.2-0.9,0.3-1.3C221.8,406,221.7,406.6,221.6,407.5z M223.4,409.1c0.4,0,0.7,0,1.1,0c0-0.3,0-0.6,0-0.9
		c-0.3,0-0.6-0.1-0.9-0.1C223.5,408.4,223.5,408.7,223.4,409.1z M251.5,409.5c-1-0.1-1-0.1-1.1,0.9
		C251.3,410.5,251.4,410.4,251.5,409.5z M235.6,406.9c0-0.3,0-0.6,0-0.8c-0.3,0-0.6,0-1,0c0,0.3,0,0.5-0.1,0.8
		C235,406.9,235.3,406.9,235.6,406.9z M231.9,406.9c0.9,0.2,1.2,0.1,1.2-0.3c0-0.2-0.2-0.4-0.3-0.5
		C232.2,405.9,232,406.1,231.9,406.9z M225.6,393.9c0,0-0.1,0-0.1,0c0,0.9,0,1.9,0,2.8c0,0,0.1,0,0.1,0
		C225.6,395.8,225.6,394.9,225.6,393.9z M234.8,405c0,0.3-0.1,0.6-0.1,0.9c0.4,0,0.7,0,1,0c0-0.3,0-0.6,0-0.9
		C235.4,405,235.1,405,234.8,405z M234.5,405.8c0-0.3,0.1-0.6,0.1-0.8c-0.9-0.2-1-0.1-1.1,0.8C233.8,405.8,234.1,405.8,234.5,405.8z
		 M261.3,399.3c0.1,0.2,0.1,0.5,0.3,0.6c0.4,0.2,1.2-0.1,1.5-0.6C262.5,399.3,262,399.3,261.3,399.3z M222.6,407.3
		c1-0.2,1-0.3,0.9-1.2C222.6,406,222.5,406.2,222.6,407.3z M224.8,388.2c0.2-0.4,0.9-0.6,0.6-1.1c0.1-0.3,0.2-0.6,0.2-0.8
		c0-0.1-0.1-0.3-0.2-0.4c-0.1,0.1-0.2,0.2-0.3,0.3C225,386.8,224.9,387.5,224.8,388.2z M253.9,386.7
		C253.8,386.7,253.8,386.7,253.9,386.7c-0.3,0.3-0.6,0.6-0.8,0.9c-0.4,0.6-0.4,0.7,0.4,0.9C253.6,387.9,253.7,387.3,253.9,386.7z
		 M232.1,390.5c-0.1,0.3-0.2,0.6-0.2,0.9c0.5-0.2,1.2,0.1,1.5-0.7C232.9,390.7,232.5,390.6,232.1,390.5z M248.1,399.3
		c-0.7,0-1.2,0-1.8,0c0.3,0.4,1,0.7,1.4,0.6C247.9,399.8,248,399.5,248.1,399.3z M248.8,396.6c-0.5,0.4-1,0.7-1.4,1c0,0,0,0.1,0,0.1
		c0.5,0,0.9-0.1,1.4-0.1C248.8,397.3,248.8,397,248.8,396.6z M254.1,409.2c0-0.3,0-0.6,0-0.9c-0.3,0-0.6,0-0.9,0
		c0,0.3-0.1,0.6-0.1,0.9C253.4,409.2,253.7,409.2,254.1,409.2z M250.3,397.8c-0.3,0-0.5,0-0.8,0.1c-0.2,0-0.3,0.2-0.5,0.2
		c0.1,0.2,0.2,0.5,0.6,0.5C250.2,398.7,250.2,398.3,250.3,397.8z M232.1,397.3c0.8,0,1.4,0,2.1,0c-0.4-0.3-0.7-0.5-1-0.8
		C232.9,396.8,232.5,397,232.1,397.3z M249,399.2c0,0.3,0,0.5,0,0.7c0.8,0.1,1.1-0.1,1-0.7C249.7,399.2,249.4,399.2,249,399.2z
		 M250.7,408.3c-1-0.1-1-0.1-1.2,0.8C250.4,409.3,250.5,409.3,250.7,408.3z M237.5,372.6c0-0.7,0-1.4,0-2.1c0,0,0,0,0,0
		c-0.2,0.7-0.4,1.4-0.6,2.2C237.1,372.6,237.3,372.6,237.5,372.6z M251.1,400.3c-0.1,0.3-0.1,0.5-0.2,0.8c0.3,0,0.6,0.1,0.9,0.1
		c0.1-0.3,0.1-0.6,0.2-1C251.6,400.3,251.4,400.3,251.1,400.3z M234.6,404.7c0-0.3,0.1-0.6,0.1-0.9c-0.9-0.1-0.9-0.1-0.9,0.9
		C234,404.7,234.3,404.7,234.6,404.7z M230.7,399.5c-0.3,0.9-0.4,3.3,0,3.6C230.7,401.8,230.7,400.6,230.7,399.5z M254.1,407.1
		c-0.3,0-0.5,0-0.8,0c0,0.3-0.1,0.6-0.1,0.9c0.3,0,0.6,0,0.9,0C254.1,407.7,254.1,407.5,254.1,407.1z M237.9,398c-0.4,0-0.8,0-1.1,0
		c0,0.3,0,0.5,0,0.7C237.6,398.8,237.9,398.6,237.9,398z M253,408.1c0-0.2,0-0.3,0.1-0.5c0-0.1,0-0.3,0-0.4
		c-0.8-0.1-0.9-0.1-0.9,0.9C252.4,408.1,252.7,408.1,253,408.1z M235.8,397.3c0-0.7,0-1.3,0-1.9c0,0-0.1,0-0.1,0
		c-0.2,0.6-0.4,1.3-0.6,1.9C235.4,397.3,235.6,397.3,235.8,397.3z M237,388.9c-1-0.2-1.2-0.1-1,0.6c0.3,0,0.7,0,1,0
		C237,389.4,237,389.2,237,388.9z M246.6,398.1c0,0.1,0,0.1,0,0.2c0.6,0,1.2,0,1.7,0c0.1,0,0.3-0.1,0.4-0.2
		c-0.1-0.1-0.3-0.2-0.4-0.2c-0.4,0-0.8,0-1.2,0C247,398,246.8,398.1,246.6,398.1z M235.7,404.7c0-0.3,0-0.6,0-0.9
		c-0.3,0-0.5,0-0.7,0c0,0.3-0.1,0.6-0.1,0.9C235.1,404.7,235.4,404.7,235.7,404.7z M221.5,407.8c-0.1,0.4-0.2,0.7-0.2,1.1
		c0.3,0,0.5,0,0.7,0c0.1-0.4,0.1-0.7,0.2-1.1C221.9,407.8,221.7,407.8,221.5,407.8z M250.6,409.2c0.4-0.1,0.9,0.3,1.1-0.4
		c0.1-0.3,0-0.5-0.3-0.5C250.7,408.2,250.8,408.7,250.6,409.2z M230.6,398c-0.7,0-1.2,0-1.8,0c0.4,0.4,1.1,0.7,1.5,0.5
		C230.4,398.5,230.5,398.2,230.6,398z M254.1,391.3c0,0,0.1,0.1,0.1,0.1c0.1-0.1,0.3-0.1,0.3-0.2c0.3-0.7,0.2-1.7,0-1.9
		C254.4,390,254.2,390.7,254.1,391.3z M224.8,394.3C224.8,394.3,224.7,394.3,224.8,394.3c-0.2,0.8-0.3,1.6-0.5,2.4
		c0,0,0.1,0.1,0.1,0.1c0.1-0.1,0.3-0.2,0.3-0.3C224.8,395.8,224.8,395.1,224.8,394.3z M224.4,394.2c-0.4,0.8-0.5,1.7-0.6,2.5
		C224.3,396,224.4,395.1,224.4,394.2z M236.2,387.8c-0.1,0.3-0.1,0.5-0.1,0.8c0.3,0,0.6,0,0.9,0c0-0.3,0-0.6,0-0.8
		C236.7,387.8,236.5,387.8,236.2,387.8z M237.5,374.6C237.5,374.6,237.4,374.6,237.5,374.6c-0.3,0.8-0.4,1.5-0.6,2.3
		c0,0,0.1,0,0.1,0.1c0.2-0.2,0.5-0.4,0.5-0.6C237.5,375.7,237.5,375.2,237.5,374.6z M253.9,391.8c-0.4,0-0.8,0-1.1,0
		c-0.1,0-0.2,0.2-0.3,0.3c0.3,0.1,0.6,0.2,0.8,0.2C253.6,392.3,254,392.3,253.9,391.8z M253.4,401.6c-0.9-0.2-0.9-0.2-1.1,0.7
		C253.3,402.5,253.3,402.5,253.4,401.6z M253.5,395.6c-0.1,0-0.1-0.1-0.2-0.1c-0.4,0.5-0.4,1.1-0.5,1.8c0.4-0.1,0.7-0.2,1.1-0.2
		c-0.5-0.1-1-0.1-0.6-0.8C253.5,396.1,253.5,395.9,253.5,395.6z M224.6,405c-0.2,0-0.5,0-0.7,0c0,0.3-0.1,0.6-0.1,0.9
		c0.3,0,0.5,0,0.8,0C224.6,405.5,224.6,405.3,224.6,405z M252.8,399.2c0.3,0.2,0.5,0.4,0.7,0.5c0.2,0.1,0.5,0.2,0.6,0.1
		c0.1-0.1,0.1-0.4,0.2-0.6C253.7,399.2,253.3,399.2,252.8,399.2z M258.3,391.7C258.3,391.7,258.2,391.7,258.3,391.7
		c-0.1,0.1-0.2,0.1-0.3,0.1c-0.2,0.1-0.3,0.1-0.5,0.2c0.1,0.1,0.3,0.2,0.4,0.3c0.1,0,0.2,0.1,0.3,0c0.2-0.1,0.5-0.2,0.7-0.3
		C258.7,391.9,258.5,391.8,258.3,391.7z M228.3,381.1c-0.3-0.4-0.5-0.6-0.7-0.9c-0.3,0.3-0.5,0.6-0.8,0.9
		C227.3,381.1,227.7,381.1,228.3,381.1z M254.2,402.6c-0.8-0.1-0.8-0.1-0.9,0.7c0.3,0,0.6,0,0.9,0
		C254.2,403.2,254.2,402.9,254.2,402.6z M243.9,398c-0.6,0-1.1,0-1.8,0c0.2,0.2,0.2,0.5,0.4,0.5C242.9,398.7,243.5,398.4,243.9,398z
		 M217.8,408.2c0.5-0.2,0.9-0.4,1.3-0.6c0,0,0-0.1,0-0.1c-0.4,0-0.9-0.1-1.4-0.2C217.8,407.6,217.8,407.8,217.8,408.2z M216.5,407.1
		c-0.4-0.1-0.6-0.1-1.1-0.2c0.4,0.5,0.7,0.9,1.1,1.4C216.5,407.9,216.5,407.5,216.5,407.1z M238.5,373.5c0,0,0,0.1,0,0.1
		c0.4,0.2,0.8,0.4,1.2,0.6c0.2-0.3,0.4-0.5,0.5-0.8C239.5,373.4,239,373.4,238.5,373.5z M251.5,397.7c0.1,0.3,0.1,0.5,0.2,0.7
		c0.1,0.1,0.4,0.1,0.4,0.1c0.2-0.2,0.3-0.5,0.5-0.9C252.2,397.6,251.9,397.6,251.5,397.7z M252.6,393.7c0.4-0.4,1-0.4,1-1.1
		C252.7,392.5,252.6,392.6,252.6,393.7z M239.1,390c-0.1,0.6,0.3,0.5,0.6,0.5c0.3,0,0.8,0.1,0.7-0.5C240,390,239.6,390,239.1,390z
		 M252.1,407.1c-0.4,0-0.9-0.2-0.9,0.4c0,0.4,0.3,0.5,0.7,0.5C252,407.8,252,407.5,252.1,407.1z M250.8,400.3c-1-0.1-1-0.1-1,0.7
		c0.2,0,0.5,0.1,0.8,0.1C250.7,400.8,250.8,400.6,250.8,400.3z M223.7,406.1c0,0.3-0.1,0.6-0.1,0.9c1-0.2,1-0.2,0.9-0.9
		C224.3,406.1,224,406.1,223.7,406.1z M255.2,394.7c0.1,0,0.1,0,0.2,0c0.3-0.5,0.1-1.1,0.1-1.7c0-0.2-0.1-0.4-0.1-0.5
		c-0.1,0-0.1,0-0.2,0C255.2,393.3,255.2,394,255.2,394.7z M258.3,412.2c0.3-0.6-0.4-0.8-0.5-1.3
		C257.3,411.4,257.5,411.8,258.3,412.2z M234.4,406.1c-0.4,0-0.7,0-1.1,0c0.2,0.6,0.5,0.9,1,0.8
		C234.4,406.6,234.4,406.4,234.4,406.1z M249.3,396.5c0.4,0.3,0.7,0.6,1.1,0.9c0.1-0.4,0.2-0.7,0.2-1.1
		C250.2,396.4,249.8,396.4,249.3,396.5z M253.4,406.9c0.3,0,0.5,0,0.8,0c0-0.3,0-0.6,0-0.9c-0.2,0-0.4,0-0.6,0
		C253.4,406.3,253.4,406.6,253.4,406.9z M233.4,404.9c-0.3,0-0.5,0-0.7,0c-0.1,0-0.3,0.3-0.2,0.3c0.2,0.2,0.4,0.5,0.7,0.8
		C233.3,405.6,233.4,405.3,233.4,404.9z M222,398.9c-0.1,0.5,0.3,0.5,0.6,0.5c0.3,0,0.7,0.1,0.7-0.5
		C222.8,398.9,222.4,398.9,222,398.9z M251.4,406c-0.7-0.1-0.8,0-1,0.8C251.2,407,251.3,407,251.4,406z M224.8,399
		c0-0.1-0.1-0.1-0.1-0.2c-0.3,0-0.7,0-1,0c-0.1,0-0.1,0.2-0.2,0.3c0.3,0.1,0.6,0.2,0.9,0.2C224.5,399.4,224.6,399.2,224.8,399z
		 M226.7,398.9c-0.4,0-0.9,0-1.3,0c0,0.6,0.4,0.5,0.7,0.5C226.4,399.4,226.8,399.4,226.7,398.9z M234.7,391.7c0-0.1-0.1-0.1-0.1-0.2
		c-0.4,0.2-0.8,0.3-1.2,0.6c-0.1,0.1-0.1,0.3-0.1,0.4c0,0,0.2,0.2,0.3,0.1C233.9,392.3,234.3,392,234.7,391.7z M268.4,406.3
		c-0.3,0.2-0.6,0.3-0.9,0.5c0.1,0.3,0.3,0.5,0.4,0.7C268.5,407.3,268.5,406.9,268.4,406.3z M235.4,390c-0.5,0-0.9,0-1.3,0
		c0,0.6,0.4,0.5,0.7,0.5C235,390.5,235.4,390.6,235.4,390z M235.3,383.7c0.5-0.7,1-1.4,1.4-2C236.1,382.2,235.2,382.5,235.3,383.7z
		 M229.8,407.3c0,0-0.1,0-0.1,0c-0.2,0.7-0.4,1.4-0.5,2.1c0,0,0.1,0.1,0.1,0.1c0.1-0.1,0.3-0.2,0.4-0.3
		C229.7,408.5,229.7,407.9,229.8,407.3z M253.7,376.9c0.6,0,1,0,1.5,0c0-0.1,0-0.1,0-0.2c-0.3-0.2-0.7-0.3-1.1-0.5
		C254,376.4,253.9,376.6,253.7,376.9z M234.4,384.9c-0.9,0.3-1.2,0.9-1.3,1.8C233.6,386.1,234,385.6,234.4,384.9z M227.5,398.8
		c-0.2,0.1-0.5,0.2-0.7,0.3c0.2,0.1,0.4,0.3,0.6,0.3c0.2,0,0.5-0.2,0.7-0.3C228,399,227.8,398.9,227.5,398.8z M251.5,406.8
		c0.7,0.2,0.8,0.1,0.9-0.8C251.6,405.9,251.6,405.9,251.5,406.8z M216.8,407.2c0,0.4,0.1,0.8,0.1,1.2c0.5,0,0.6-0.2,0.5-0.5
		C217.3,407.6,217.6,407.1,216.8,407.2z M221.3,398.8c-0.3,0.1-0.5,0.2-0.7,0.3c0.2,0.1,0.4,0.3,0.6,0.3c0.2,0,0.4-0.2,0.6-0.3
		C221.7,399,221.5,398.9,221.3,398.8z M250.8,405.7c0.8,0.1,0.8,0,1-0.9C251,404.6,251.1,405.3,250.8,405.7z M235.4,381.5
		c-1,0.1-1,0.1-1.1,0.8C235.2,382.1,235.4,381.9,235.4,381.5z M256,376.7c0-0.7,0-1.3,0-2c-0.2,0.5-0.3,1-0.4,1.5
		C255.5,376.6,255.6,376.7,256,376.7z M254.8,382.4c-0.7-0.1-0.8,0-0.7,0.9C254.7,383.3,254.7,383.2,254.8,382.4z M233,403.6
		c0.8,0.1,0.8,0.1,0.9-0.8C233.2,402.6,233.2,402.6,233,403.6z M255.5,391.4c0-0.3,0-0.6,0-0.9c-0.7-0.1-0.7,0-0.7,0.9
		C255,391.4,255.2,391.4,255.5,391.4z M250.9,395.1c-0.5,0.4-1,0.7-1.5,1.1C250.7,396.2,250.7,396.2,250.9,395.1z M258.3,410.9
		c0.6-0.3,1.1-0.6,1.7-0.9C259,409.9,258.4,410.1,258.3,410.9z M236.3,386.8c0,0.3-0.1,0.5-0.1,0.8c0.3,0,0.5,0,0.7,0
		c0-0.3,0-0.5,0-0.8C236.8,386.8,236.6,386.8,236.3,386.8z M222,392.9c0,0.1,0.1,0.1,0.1,0.2c0.2-0.1,0.5-0.2,0.6-0.3
		c0.2-0.4,0.2-0.8,0.3-1.1c0,0-0.1-0.1-0.1-0.1c0,0.1,0,0.1-0.1,0.2C222.5,392.1,222.3,392.5,222,392.9z M252.7,404.9
		c-0.7-0.1-0.7,0-0.8,0.9c0.2,0,0.4,0,0.6,0C252.5,405.5,252.6,405.2,252.7,404.9z M228.3,398.9c0,0.6,0.4,0.5,0.7,0.5
		c0.3,0,0.6-0.1,0.4-0.5C229.1,398.9,228.8,398.9,228.3,398.9z M232.6,404.7c0.9,0.2,1,0.1,0.9-0.8
		C233.2,404.1,232.6,404.1,232.6,404.7z M237.7,390c0.1,0.6,0.5,0.6,0.9,0.5c0.2,0,0.3-0.3,0.5-0.5C238.5,390,238.1,390,237.7,390z
		 M253.2,406c-0.7-0.1-0.7,0-0.8,0.9C253.2,407,253.2,406.9,253.2,406z M220.3,408.1c-0.9,0-1,0.1-1,0.7c0.3,0,0.5,0,0.8,0.1
		C220.2,408.6,220.3,408.3,220.3,408.1z M254.2,405.7c0-0.3,0-0.6,0-0.9c-0.6,0-0.6,0.1-0.6,0.9C253.8,405.7,254,405.7,254.2,405.7z
		 M231,395.1C231,395.1,230.9,395.1,231,395.1c-0.2,0.6-0.4,1.2-0.6,1.9c0.2,0,0.4,0,0.6,0C231,396.3,231,395.7,231,395.1z
		 M242.7,398.8c-0.6,0.1-1.1,0.1-1.6,0.1C241.7,399.7,241.8,399.7,242.7,398.8z M220.5,408.8c0.6,0.1,0.8-0.1,0.7-0.9
		C220.5,407.9,220.5,408,220.5,408.8z M225.8,400.7c0.6-0.3,1-0.6,1.6-1C226.2,399.6,226.2,399.7,225.8,400.7z M249.1,396.6
		c0,0.4,0,0.7,0,1c0.3,0,0.7,0,1.2-0.1C249.8,397.3,249.5,397,249.1,396.6z M223.1,404.7c0.7,0.1,0.8-0.1,0.6-0.9
		C223.1,403.8,223.1,403.8,223.1,404.7z M252,401.3c0.8,0,0.6-0.6,0.9-1c-0.3,0-0.5,0-0.7,0C252.1,400.6,252.1,400.9,252,401.3z
		 M256.1,391.8c0.3,0.5,0.6,0.7,1,0.5c0.1,0,0.2-0.2,0.2-0.3c0-0.1-0.1-0.2-0.2-0.2C256.8,391.8,256.5,391.8,256.1,391.8z
		 M233.1,379.3c0,0,0.1,0.1,0.1,0.1c0.4-0.2,0.8-0.5,1.2-0.7c-0.3-0.2-0.4-0.3-0.7-0.4C233.6,378.6,233.4,378.9,233.1,379.3z
		 M252.7,405.7c0.2,0,0.4,0,0.6,0c0-0.2,0.1-0.3,0.1-0.5c0-0.1,0-0.3,0-0.4C252.9,404.8,252.9,404.8,252.7,405.7z M260.3,391.8
		c-0.4,0-0.7,0-1,0c-0.1,0-0.2,0.1-0.2,0.2c0,0.1,0,0.2,0.1,0.3C259.5,392.4,260,392.2,260.3,391.8z M229.2,399.7
		c-0.5,0-0.9,0-1.4,0c0.3,0.3,0.5,0.5,0.7,0.8C228.7,400.3,228.9,400,229.2,399.7z M239.5,397.2c-0.6-0.4-1.3-0.8-1.9-1.1
		c0,0,0,0.1-0.1,0.1C238.2,396.5,238.6,397.4,239.5,397.2z M251.1,391.8c0.3,0.5,0.8,0.7,1.1,0.4c0.1-0.1,0.1-0.2,0.1-0.3
		c0-0.1-0.1-0.2-0.2-0.2C251.8,391.8,251.5,391.8,251.1,391.8z M239.7,373c-0.7,0-1.2,0-1.9,0C238.2,373.3,239.2,373.3,239.7,373z
		 M256.4,382.9c0.6-0.1,1.1-0.3,1.6-0.4c0,0,0-0.1,0-0.1c-0.5,0-1,0-1.6,0C256.4,382.5,256.4,382.7,256.4,382.9z M249.9,408
		c0,0,0.1,0.1,0.1,0.1c0.3-0.1,0.6-0.2,0.9-0.2c-0.2-0.2-0.3-0.5-0.6-0.8C250.1,407.5,250,407.8,249.9,408z M235.7,402.5
		c0-0.3,0-0.6,0-0.8c-0.2,0-0.4,0-0.6,0c0,0.3,0,0.6-0.1,0.8C235.3,402.5,235.5,402.5,235.7,402.5z M264,410.4c0,0,0.1,0.1,0.1,0.1
		c0.5-0.4,1.1-0.8,1.7-1.3C264.7,409.2,264.5,410,264,410.4z M234.4,401.6c-0.1,0.3-0.1,0.6-0.2,0.9c0.3,0,0.5,0,0.7,0
		c0-0.3,0.1-0.6,0.1-0.9C234.7,401.6,234.6,401.6,234.4,401.6z M235.3,382.2c-0.4,0.3-1.2,0.2-1.2,1.1
		C234.6,382.9,235.1,382.8,235.3,382.2z M240.7,390c-0.1,0.4,0.1,0.5,0.4,0.5c0.3,0,0.7,0,0.8-0.5C241.4,390,241.1,390,240.7,390z
		 M222.8,397.5c-0.1,0.4-0.1,0.7-0.2,1c0.2,0,0.4,0,0.5,0C223.3,398.1,223.5,397.7,222.8,397.5z M236.6,377.6c0.1,0,0.1,0.1,0.2,0.1
		c0.2,0,0.5,0,0.7,0c0-0.3,0-0.6,0-1.1C237.1,377.1,236.8,377.4,236.6,377.6z M233.3,402.4c0.7,0.1,0.8,0,0.8-0.8
		C233.4,401.5,233.5,402.1,233.3,402.4z M236.3,374.8c0.4-0.5,0.7-0.9,1-1.3C236.6,373.4,236.6,373.4,236.3,374.8z M266.4,405.2
		c-0.3,0.2-0.5,0.3-0.8,0.5c0.3,0.6,0.7,0.4,1.1,0.1C266.6,405.6,266.5,405.5,266.4,405.2z M233.1,396.4c-0.3-0.2-0.5-0.3-0.7-0.5
		c-0.1,0.4-0.2,0.8-0.3,1.2C232.5,396.8,232.7,396.6,233.1,396.4z M225.9,382.7c-0.1,0.6-0.2,1.2-0.4,1.8
		C226,384.5,226,384.5,225.9,382.7z M230.3,404.9c0,0,0.1,0,0.1,0.1c0.1-0.1,0.2-0.3,0.2-0.4c0-0.4,0.2-0.9-0.3-1.2
		C230.3,403.8,230.3,404.4,230.3,404.9z M235.9,392.9c-0.7-0.2-0.6,0.3-0.7,0.7c0.2,0,0.5,0,0.7,0
		C235.9,393.3,235.9,393.1,235.9,392.9z M233.3,391.9c0.5-0.3,0.9-0.5,1.4-0.7C233.6,391.2,233.4,391.3,233.3,391.9z M232.7,390
		c0.1,0.4,0.4,0.6,0.8,0.5c0.1,0,0.3-0.2,0.4-0.4c0,0-0.1-0.1-0.1-0.1C233.4,390,233.1,390,232.7,390z M222.7,405.7
		c0,0,0.1,0.1,0.1,0.1c0.2,0,0.5,0,0.7,0c0-0.3,0.1-0.5,0.1-0.8c0,0-0.1,0-0.1-0.1C223.3,405.2,223,405.5,222.7,405.7z M231.2,390.9
		c0.2,0.1,0.3,0.3,0.5,0.4c0.3-0.9,0.3-0.9-0.1-1.1C231.5,390.4,231.3,390.6,231.2,390.9z M261.4,400.2c-0.6,0-1.2,0.1-1.8,0.1
		C260,400.8,260.6,400.7,261.4,400.2z M251.3,404.5c0.8,0.2,0.7-0.4,0.9-0.8C251.5,403.5,251.6,404.2,251.3,404.5z M254.2,401.6
		c-0.7-0.2-0.6,0.3-0.7,0.7c0.2,0,0.4,0,0.7,0C254.2,402.1,254.2,401.9,254.2,401.6z M255.3,396.5c0.3-0.5,0.2-1,0.1-1.5
		C255.1,395.4,255.2,395.9,255.3,396.5z M229.4,399.9C229.4,399.9,229.4,399.9,229.4,399.9c-0.3,0.2-0.6,0.5-0.9,0.8
		c0.1,0.2,0.3,0.3,0.4,0.5C229.2,400.7,229.3,400.3,229.4,399.9z M234.9,397.8c-0.1,0.8,0.2,1,1,0.8
		C235.6,398.3,235.3,398.1,234.9,397.8z M224.3,393.9c-0.8-0.1-0.9,0.1-0.8,1C223.7,394.6,224,394.3,224.3,393.9z M255.5,392
		c0,0,0-0.1,0-0.1c-0.5,0-1,0-1.4,0c0,0,0,0.1,0,0.1C254.5,392,255,392,255.5,392z M222.7,396.9c0.1-0.5,0.2-0.8,0.2-1.2
		c0,0-0.1,0-0.1-0.1c-0.2,0.3-0.5,0.6-0.8,0.9C222.3,396.7,222.5,396.8,222.7,396.9z M224.5,406.9c-0.4,0.2-0.6,0.4-0.9,0.6
		c0.3,0.1,0.6,0.2,0.9,0.3C224.5,407.4,224.5,407.2,224.5,406.9z M252.2,404.5c0.6,0.1,0.7,0,0.7-0.8
		C252.2,403.6,252.4,404.2,252.2,404.5z M255.6,383c-0.1-0.3-0.3-0.7-0.4-0.6c-0.5,0-0.3,0.5-0.4,0.8
		C255.1,383.1,255.3,383.1,255.6,383z M224.6,403.6c0-0.3,0-0.6,0-0.9c-0.2,0.1-0.4,0.1-0.5,0.2c-0.1,0.2-0.1,0.5-0.1,0.7
		C224.3,403.6,224.4,403.6,224.6,403.6z M252.8,409.2c0-0.3,0.1-0.6,0.1-0.8c-0.3,0-0.6,0-1,0C252.3,408.6,252.5,408.9,252.8,409.2z
		 M224,402.7c-0.8,0-0.6,0.5-0.7,0.9C224.1,403.7,223.7,403.1,224,402.7z M234.1,402.7c0,0.2-0.1,0.5-0.1,0.8
		c0.8-0.3,0.8-0.3,0.8-0.8C234.6,402.7,234.4,402.7,234.1,402.7z M235.6,383.6c0.6-0.3,1.1-0.6,1-1.4
		C236.3,382.7,235.9,383.1,235.6,383.6z M225.6,381c0.5,0,0.6-0.4,0.4-1.7C225.8,380,225.7,380.5,225.6,381z M250.5,397.9
		c-0.1,0.3-0.1,0.5-0.2,0.7c0.4,0,0.6,0,1,0c-0.2-0.2-0.3-0.3-0.5-0.4C250.8,398.1,250.7,398,250.5,397.9z M254,397.3
		c-1.3,0.1-1.3,0.1-1.2,0.8C253.1,397.9,253.5,397.7,254,397.3z M258.5,381.7c-0.4,0-0.8,0-1.2,0C257.6,382.2,258,382.2,258.5,381.7
		z M254.5,395.7c-0.2-0.3-0.3-0.6-0.4-0.8c-0.2,0.2-0.3,0.5-0.5,0.8C254,395.7,254.1,395.7,254.5,395.7z M217.9,408.5
		c0.9,0.4,1.2,0.3,1.2-0.2C218.7,408.4,218.3,408.4,217.9,408.5z M253,404.5c0.6,0.1,0.7-0.1,0.5-0.9
		C252.9,403.7,253.1,404.2,253,404.5z M252.6,402.6c-0.7,0-0.6,0.5-0.8,0.8C252.6,403.6,252.4,403,252.6,402.6z M253.8,381.7
		c0,0.1,0,0.2-0.1,0.2c0.2,0,0.5,0.1,0.7,0.1c0.1,0,0.2-0.2,0.3-0.2c0,0,0-0.1-0.1-0.1C254.5,381.7,254.1,381.7,253.8,381.7z
		 M233.2,391.5c0,0-0.1-0.1-0.1-0.1c-0.3,0.1-0.6,0.2-0.9,0.2c0,0,0,0.1,0,0.1c0.2,0.1,0.5,0.3,0.7,0.3
		C233,392,233.1,391.7,233.2,391.5z M252.9,410.3c0.3,0,0.6,0,1,0c-0.3-0.3-0.6-0.5-0.9-0.8C253,409.9,252.9,410.1,252.9,410.3z
		 M226.3,398.5c0,0,0.1-0.1,0.1-0.1c-0.2-0.1-0.4-0.3-0.7-0.4c-0.1,0-0.3,0.3-0.4,0.4c0,0,0.1,0.1,0.1,0.1
		C225.7,398.5,226,398.5,226.3,398.5z M226.3,381.4c0,0,0,0.1,0,0.1c0.5,0,0.9,0,1.4,0c0,0,0-0.1,0-0.1
		C227.3,381.4,226.8,381.4,226.3,381.4z M254.2,403.7c-0.6,0.1-0.3,0.6-0.5,0.8C254.3,404.6,254.3,404.6,254.2,403.7z M253.2,409.4
		c0.3,0.3,0.6,0.5,0.9,0.8c0-0.3,0-0.6,0-0.8C253.8,409.4,253.6,409.4,253.2,409.4z M223.5,410.2c0-0.2,0-0.3,0-0.5
		c-0.7-0.1-0.7-0.1-0.6,0.5C223,410.2,223.2,410.2,223.5,410.2z M249,400.3c-0.1,0.6,0.2,0.6,0.6,0.6c0-0.2,0.1-0.4,0.1-0.6
		C249.5,400.3,249.2,400.3,249,400.3z M237,385.8c-0.7-0.1-0.5,0.4-0.6,0.7c0.2,0,0.4,0,0.6,0C237,386.3,237,386.1,237,385.8z
		 M255.7,390.3c-0.2-0.3-0.4-0.5-0.5-0.8c0,0-0.1,0-0.1,0.1c0,0.2-0.1,0.4-0.1,0.7C255.1,390.3,255.3,390.3,255.7,390.3z
		 M221.6,406.4c-0.3,0.3-0.8,0.3-0.8,0.9c0.2,0,0.4,0,0.6,0C221.4,407,221.5,406.8,221.6,406.4z M226.2,410.2
		c-0.1-0.2-0.1-0.4-0.2-0.5c-0.2-0.1-0.4-0.1-0.5,0c-0.1,0-0.1,0.3-0.1,0.4C225.7,410.2,225.8,410.2,226.2,410.2z M220.8,410.4
		c0.1-0.5,0-0.7-0.3-0.6c-0.1,0-0.2,0.2-0.3,0.3C220.4,410.1,220.6,410.2,220.8,410.4z M267.1,405.7c0.2-0.1,0.3-0.2,0.5-0.3
		c-0.1-0.2-0.2-0.4-0.3-0.5c-0.2,0.1-0.3,0.2-0.5,0.2C266.8,405.3,266.9,405.5,267.1,405.7z M228,410.2c0.2,0,0.4,0,0.7,0
		c0-0.1,0.1-0.1,0.1-0.2c-0.1-0.1-0.3-0.3-0.4-0.3C228,409.7,227.9,409.9,228,410.2z M248.6,400c0.1,0,0.1-0.1,0.2-0.1
		c0-0.2,0-0.4,0-0.6c-0.2,0-0.4,0-0.7,0C248.3,399.6,248.4,399.8,248.6,400z M252.5,403.5c0.8,0,0.5-0.5,0.7-0.9
		C252.6,402.6,252.7,403.1,252.5,403.5z M224.9,392.8c0,0.1,0.1,0.1,0.1,0.2c0.2,0,0.4,0,0.6,0c0,0,0.1-0.1,0.1-0.1
		c-0.1-0.1-0.3-0.4-0.4-0.4C225.2,392.5,225.1,392.7,224.9,392.8z M219.5,398.9c0,0.1,0,0.1-0.1,0.2c0.2,0.1,0.4,0.2,0.7,0.2
		c0.1,0,0.2-0.1,0.3-0.2c-0.1-0.1-0.2-0.2-0.3-0.2C220,398.9,219.7,398.9,219.5,398.9z M224.2,397.9c0-0.2,0.1-0.4,0.1-0.6
		c-0.2-0.1-0.4-0.1-0.6-0.2C223.6,397.6,223.6,397.6,224.2,397.9z M235.3,372.9c0.9,0.4,1.2,0.4,1.4,0
		C236.2,372.9,235.8,372.9,235.3,372.9z M232.5,392.2c-0.3-0.2-0.5-0.3-0.7-0.5c-0.1,0.3-0.1,0.6-0.2,0.9
		C231.9,392.4,232.2,392.4,232.5,392.2z M233.6,392.8c0.2,0.2,0.4,0.3,0.6,0.4c0.1-0.4,0.1-0.7,0.2-1.1
		C234.1,392.4,233.9,392.6,233.6,392.8z M236,380.5c0,0.3-0.1,0.4-0.1,0.7c0.3-0.1,0.6-0.2,0.8-0.3c0-0.1,0-0.1,0-0.2
		C236.5,380.6,236.2,380.5,236,380.5z M225.4,399.7c0,0.4,0,0.6,0,1.1c0.2-0.4,0.4-0.7,0.6-1.1C225.8,399.7,225.6,399.7,225.4,399.7
		z M231.7,389.3c0.9,0,0.6-0.7,0.8-1.1C232.2,388.5,232,388.9,231.7,389.3z M234.9,389.6c-0.3-0.3-0.6-0.5-0.8-0.8
		C233.9,389.3,234.3,389.6,234.9,389.6z M254.3,396.5c0-0.2,0-0.4,0-0.5c-0.2,0-0.4,0-0.6,0c0,0.2,0,0.3-0.1,0.5
		C253.9,396.5,254.1,396.5,254.3,396.5z M224.7,393.5c0-0.1,0-0.2,0-0.3c-0.3,0-0.7,0.1-1,0.1c0,0.1,0,0.2,0,0.3
		C224,393.6,224.3,393.6,224.7,393.5z M255,389c0.6,0.2,0.5-0.1,0.5-0.4c0-0.1-0.1-0.2-0.2-0.3C255.3,388.5,255.1,388.7,255,389z
		 M230.7,399.1c0-0.1,0-0.1,0-0.2c-0.2,0-0.5,0-0.7,0c-0.1,0-0.1,0.2-0.2,0.2c0.1,0.1,0.2,0.2,0.2,0.2
		C230.2,399.3,230.4,399.2,230.7,399.1z M227.1,393.3c0.5,0.4,0.8,0.4,1.1,0C227.8,393.3,227.5,393.3,227.1,393.3z M225,392.1
		c0.1,0.1,0.2,0.2,0.2,0.2c0.1-0.1,0.3-0.2,0.4-0.4c0-0.1-0.1-0.2-0.2-0.3C225.3,391.8,225.2,391.9,225,392.1z M235.8,394.5
		c0-0.3,0-0.5,0-0.7c-0.2,0-0.5,0-0.9,0C235.3,394.1,235.6,394.3,235.8,394.5z M231.5,404.5c-0.2-0.2-0.4-0.4-0.6-0.7
		c0,0.4,0,0.6,0,0.9C231.1,404.6,231.3,404.6,231.5,404.5z M254.4,394c-0.1,0-0.1-0.1-0.2-0.1c-0.1,0.2-0.2,0.4-0.3,0.7
		C254.6,394.7,254.3,394.3,254.4,394z M235.9,394.8c-0.3-0.3-0.6-0.4-0.8-0.6c-0.1,0.3-0.1,0.4-0.1,0.6
		C235.2,394.8,235.5,394.8,235.9,394.8z M216.5,409.2c-0.1,0-0.1,0.1-0.2,0.1c0.1,0.2,0,0.7,0.6,0.5
		C216.7,409.6,216.6,409.4,216.5,409.2z M239.1,378.1c0,0-0.1,0.1-0.1,0.1c0.1,0.1,0.3,0.2,0.4,0.2c0.2,0,0.4-0.1,0.6-0.1
		c0-0.1,0-0.1,0-0.2C239.8,378.1,239.4,378.1,239.1,378.1z M237,390.2c0,0,0-0.1,0-0.1c-0.5,0-0.9,0-1.4,0c0,0,0,0.1,0,0.1
		C236.1,390.2,236.5,390.2,237,390.2z M223.4,398.5c0.3,0,0.6,0,1,0c-0.3-0.2-0.6-0.4-0.8-0.6C223.5,398.2,223.4,398.3,223.4,398.5z
		 M235.7,403c-0.3,0.2-0.5,0.3-0.8,0.5c0,0,0,0.1,0.1,0.1c0.2,0,0.5,0,0.7,0C235.7,403.4,235.7,403.2,235.7,403z M235.3,378.1
		c0,0.1,0,0.2,0,0.2c0.2,0,0.5,0.1,0.7,0.1c0.1,0,0.2-0.1,0.4-0.2c0,0,0-0.1-0.1-0.1C235.9,378.1,235.6,378.1,235.3,378.1z
		 M259,412.5c0.2-0.7,0.2-0.7-0.5-0.7C258.7,412.1,258.8,412.2,259,412.5z M217.2,409.2c-0.1,0.1-0.1,0.1-0.2,0.2
		c0.1,0.2,0,0.7,0.7,0.5C217.5,409.6,217.4,409.4,217.2,409.2z M218,409.2c-0.1,0.1-0.1,0.1-0.2,0.2c0.1,0.2,0,0.7,0.7,0.5
		C218.3,409.6,218.1,409.4,218,409.2z M220.4,407.8c-0.8-0.3-0.8-0.3-0.9,0.2C219.8,407.9,220.1,407.8,220.4,407.8z M237.8,378.1
		c0.8,0.5,0.9,0.5,1.1,0C238.6,378.1,238.3,378.1,237.8,378.1z"/>
</g>
</svg>
