<?xml version="1.0" encoding="UTF-8" standalone="no"?>
<svg width="531px" height="105px" viewBox="0 0 531 105" version="1.1" xmlns="http://www.w3.org/2000/svg" xmlns:xlink="http://www.w3.org/1999/xlink">
    <!-- Generator: Sketch 3.8.3 (29802) - http://www.bohemiancoding.com/sketch -->
    <title>fp-logo</title>
    <desc>Created with Sketch.</desc>
    <defs>
        <linearGradient x1="100.449%" y1="50.02%" x2="-449.099%" y2="50.02%" id="linearGradient-1">
            <stop stop-color="#1FACE3" offset="0%"></stop>
            <stop stop-color="#0681AF" offset="100%"></stop>
        </linearGradient>
        <linearGradient x1="55.1825%" y1="8.07171717%" x2="19.59%" y2="350.332323%" id="linearGradient-2">
            <stop stop-color="#1FACE3" offset="0%"></stop>
            <stop stop-color="#0681AF" offset="100%"></stop>
        </linearGradient>
        <linearGradient x1="62.077305%" y1="-24.5658635%" x2="46.0666667%" y2="83.3216867%" id="linearGradient-3">
            <stop stop-color="#1FACE3" offset="0%"></stop>
            <stop stop-color="#015079" offset="100%"></stop>
        </linearGradient>
        <linearGradient x1="51.5057471%" y1="6.98318584%" x2="46.5965517%" y2="207.306637%" id="linearGradient-4">
            <stop stop-color="#2BBDE5" offset="11.01%"></stop>
            <stop stop-color="#0681AF" offset="100%"></stop>
        </linearGradient>
        <linearGradient x1="54.315%" y1="-171.806452%" x2="47.637%" y2="208.803226%" id="linearGradient-5">
            <stop stop-color="#1FACE3" offset="0%"></stop>
            <stop stop-color="#035E81" offset="100%"></stop>
        </linearGradient>
        <linearGradient x1="53.4326531%" y1="-97.7642857%" x2="49.2826531%" y2="94.7017857%" id="linearGradient-6">
            <stop stop-color="#1FACE3" offset="0%"></stop>
            <stop stop-color="#0A1F41" offset="93.45%"></stop>
        </linearGradient>
        <linearGradient x1="87%" y1="0.444670051%" x2="18.9333333%" y2="101.508376%" id="linearGradient-7">
            <stop stop-color="#1FACE3" offset="0%"></stop>
            <stop stop-color="#086A8D" offset="100%"></stop>
        </linearGradient>
        <linearGradient x1="150.954723%" y1="124.788889%" x2="-0.19218241%" y2="29.8968661%" id="linearGradient-8">
            <stop stop-color="#1FACE3" offset="0%"></stop>
            <stop stop-color="#035E81" offset="86.14%"></stop>
        </linearGradient>
        <linearGradient x1="129.990028%" y1="140.426667%" x2="28.3931624%" y2="33.7733333%" id="linearGradient-9">
            <stop stop-color="#1FACE3" offset="0%"></stop>
            <stop stop-color="#0A1F41" offset="100%"></stop>
        </linearGradient>
    </defs>
    <g id="Page-1" stroke="none" stroke-width="1" fill="none" fill-rule="evenodd">
        <g id="fp-logo" transform="translate(-2.000000, -4.000000)">
            <g id="Group" transform="translate(2.240816, 3.930549)">
                <g transform="translate(-0.000000, 0.000000)" id="Shape">
                    <polygon fill="url(#linearGradient-1)" points="123.46898 104.034157 107.559184 44.7988628 101.060816 48.3753334 123.244898 104.034157"></polygon>
                    <polygon fill="url(#linearGradient-2)" points="101.060816 48.3753334 94.1142857 31.3870981 83.1342857 39.8812158 91.6493878 53.5165099"></polygon>
                    <polygon fill="url(#linearGradient-3)" points="123.020816 103.587098 123.244898 104.034157 101.060816 48.3753334 91.6493878 53.5165099"></polygon>
                    <polygon fill="url(#linearGradient-4)" points="83.1342857 39.8812158 58.4853061 0.316509891 44.1440816 26.0223922 69.2412245 50.8341569"></polygon>
                    <polygon fill="url(#linearGradient-5)" points="79.1008163 60.6694511 91.6493878 53.5165099 83.1342857 39.8812158 69.2412245 50.8341569"></polygon>
                    <polyline fill="url(#linearGradient-6)" points="79.1008163 60.6694511 91.6493878 53.5165099 123.020816 103.587098 79.1008163 60.6694511"></polyline>
                    <polygon fill="url(#linearGradient-7)" points="44.1440816 26.0223922 34.2844898 16.4106275 0.448163265 104.481216 0.448163265 104.481216"></polygon>
                    <polygon fill="url(#linearGradient-8)" points="0.448163265 104.481216 69.2412245 50.8341569 44.1440816 26.0223922"></polygon>
                    <polygon fill="url(#linearGradient-9)" points="79.1008163 60.6694511 69.2412245 50.8341569 0.448163265 104.481216 2.24081633 103.363569"></polygon>
                </g>
                <g transform="translate(155.682346, 29.058824)" id="Shape" fill="#FFFFFF">
                    <polygon points="21.5662255 0.763568715 21.5662255 6.79886283 7.22500099 6.79886283 7.22500099 13.5047452 20.8939806 13.5047452 20.8939806 19.5400393 7.22500099 19.5400393 7.22500099 31.6106275 0.278470378 31.6106275 0.278470378 0.763568715 21.5662255 0.763568715"></polygon>
                    <path d="M66.6066336,27.3635687 C63.4694908,30.4929805 59.660103,31.8341569 54.9543887,31.8341569 C50.4727561,31.8341569 46.4392867,30.2694511 43.3021438,27.3635687 C40.165001,24.2341569 38.5964296,20.4341569 38.5964296,15.9635687 C38.5964296,11.4929805 40.165001,7.69298048 43.3021438,4.56356871 C46.4392867,1.43415695 50.2486745,0.0929804792 54.9543887,0.0929804792 C59.4360214,0.0929804792 63.4694908,1.65768636 66.6066336,4.56356871 C69.7437765,7.69298048 71.3123479,11.4929805 71.3123479,15.9635687 C71.3123479,20.4341569 69.7437765,24.2341569 66.6066336,27.3635687 L66.6066336,27.3635687 Z M64.1417357,15.9635687 C64.1417357,13.2812158 63.2454092,10.8223922 61.4527561,9.03415695 C59.660103,7.02239224 57.4192867,6.1282746 54.9543887,6.1282746 C52.2654092,6.1282746 50.2486745,7.02239224 48.4560214,9.03415695 C46.6633683,11.0459217 45.7670418,13.2812158 45.7670418,15.9635687 C45.7670418,18.6459217 46.6633683,21.1047452 48.4560214,22.8929805 C50.2486745,24.9047452 52.4894908,25.7988628 54.9543887,25.7988628 C57.6433683,25.7988628 59.660103,24.9047452 61.4527561,22.8929805 C63.4694908,21.1047452 64.1417357,18.6459217 64.1417357,15.9635687 L64.1417357,15.9635687 Z"></path>
                    <path d="M98.6503071,23.5635687 C99.7707153,24.9047452 101.339287,25.7988628 103.356021,25.7988628 C105.372756,25.7988628 106.941328,25.1282746 108.061736,23.5635687 C109.182144,22.2223922 109.854389,20.2106275 109.854389,17.751804 L109.854389,0.763568715 L116.800919,0.763568715 L116.800919,17.9753334 C116.800919,22.4459217 115.45643,25.7988628 112.991532,28.2576864 C110.526634,30.7165099 107.389491,31.8341569 103.580103,31.8341569 C99.7707153,31.8341569 96.6335724,30.7165099 93.9445928,28.2576864 C91.4796949,25.7988628 90.1352051,22.4459217 90.1352051,17.9753334 L90.1352051,0.763568715 L97.0817357,0.763568715 L97.0817357,17.751804 C96.8576541,20.2106275 97.5298989,22.2223922 98.6503071,23.5635687 L98.6503071,23.5635687 Z"></path>
                    <path d="M162.065409,11.0459217 C162.065409,15.9635687 160.048674,19.0929805 156.239287,20.6576864 L164.082144,31.6106275 L155.567042,31.6106275 L148.620511,21.7753334 L143.914797,21.7753334 L143.914797,31.6106275 L136.968266,31.6106275 L136.968266,0.763568715 L148.620511,0.763568715 C153.326225,0.763568715 156.911532,1.65768636 158.928266,3.22239224 C160.945001,4.78709813 162.065409,7.46945107 162.065409,11.0459217 L162.065409,11.0459217 Z M153.550307,14.6223922 C154.446634,13.951804 154.894797,12.6106275 154.894797,11.0459217 C154.894797,9.48121577 154.446634,8.1400393 153.550307,7.69298048 C152.653981,7.02239224 151.085409,6.79886283 148.844593,6.79886283 L143.690715,6.79886283 L143.690715,15.9635687 L148.844593,15.9635687 C151.085409,15.7400393 152.878062,15.2929805 153.550307,14.6223922 L153.550307,14.6223922 Z"></path>
                    <path d="M203.520511,3.44592166 C205.761328,5.23415695 206.881736,8.1400393 206.881736,11.9400393 C206.881736,15.7400393 205.761328,18.6459217 203.520511,20.2106275 C201.279695,21.9988628 197.91847,22.8929805 193.436838,22.8929805 L189.403368,22.8929805 L189.403368,31.3870981 L182.456838,31.3870981 L182.456838,0.540039303 L193.436838,0.540039303 C197.91847,0.763568715 201.503777,1.65768636 203.520511,3.44592166 L203.520511,3.44592166 Z M198.590715,15.5165099 C199.487042,14.6223922 199.935205,13.2812158 199.935205,11.4929805 C199.935205,9.70474519 199.487042,8.36356871 198.366634,7.69298048 C197.246225,7.02239224 195.677654,6.57533342 193.436838,6.57533342 L189.403368,6.57533342 L189.403368,16.8576864 L194.109083,16.8576864 C196.125817,17.0812158 197.694389,16.6341569 198.590715,15.5165099 L198.590715,15.5165099 Z"></path>
                    <path d="M251.473981,27.3635687 C248.336838,30.4929805 244.52745,31.8341569 239.821736,31.8341569 C235.340103,31.8341569 231.306634,30.2694511 228.169491,27.3635687 C225.032348,24.2341569 223.463777,20.4341569 223.463777,15.9635687 C223.463777,11.4929805 225.032348,7.69298048 228.169491,4.56356871 C231.306634,1.43415695 235.116021,0.0929804792 239.821736,0.0929804792 C244.303368,0.0929804792 248.336838,1.65768636 251.473981,4.56356871 C254.611123,7.69298048 256.179695,11.4929805 256.179695,15.9635687 C256.179695,20.4341569 254.611123,24.2341569 251.473981,27.3635687 L251.473981,27.3635687 Z M249.233164,15.9635687 C249.233164,13.2812158 248.336838,10.8223922 246.544185,9.03415695 C244.751532,7.02239224 242.510715,6.1282746 240.045817,6.1282746 C237.356838,6.1282746 235.340103,7.02239224 233.54745,9.03415695 C231.754797,11.0459217 230.85847,13.2812158 230.85847,15.9635687 C230.85847,18.6459217 231.754797,21.1047452 233.54745,22.8929805 C235.340103,24.9047452 237.580919,25.7988628 240.045817,25.7988628 C242.734797,25.7988628 244.751532,24.9047452 246.544185,22.8929805 C248.336838,21.1047452 249.233164,18.6459217 249.233164,15.9635687 L249.233164,15.9635687 Z"></path>
                    <polygon points="275.226634 0.763568715 282.173164 0.763568715 282.173164 31.6106275 275.226634 31.6106275"></polygon>
                    <polygon points="324.748674 0.763568715 331.695205 0.763568715 331.695205 31.6106275 324.748674 31.6106275 309.959287 12.3870981 309.959287 31.6106275 303.012756 31.6106275 303.012756 0.763568715 309.511123 0.763568715 324.748674 20.6576864 324.748674 0.763568715"></polygon>
                    <polygon points="365.531532 6.57533342 365.531532 31.3870981 358.585001 31.3870981 358.585001 6.57533342 349.845817 6.57533342 349.845817 0.540039303 374.270715 0.540039303 374.270715 6.57533342"></polygon>
                </g>
                <g transform="translate(337.188468, 73.134872)" id="Shape" fill="#FFFFFF">
                    <polygon points="0.502552011 0.499285322 11.0343887 0.499285322 11.0343887 2.73457944 2.96744997 2.73457944 2.96744997 6.53457944 10.1380622 6.53457944 10.1380622 8.76987356 2.96744997 8.76987356 2.96744997 12.5698736 11.0343887 12.5698736 11.0343887 14.8051677 0.278470378 14.8051677 0.278470378 0.499285322"></polygon>
                    <polygon points="35.4592867 0.499285322 37.700103 0.499285322 45.3188785 10.3345794 45.3188785 0.499285322 47.7837765 0.499285322 47.7837765 14.5816383 45.7670418 14.5816383 37.9241847 4.52281473 37.9241847 14.5816383 35.4592867 14.5816383"></polygon>
                    <polygon points="74.0013275 0.499285322 84.5331643 0.499285322 84.5331643 2.73457944 76.4662255 2.73457944 76.4662255 6.53457944 83.6368377 6.53457944 83.6368377 8.76987356 76.4662255 8.76987356 76.4662255 12.5698736 84.5331643 12.5698736 84.5331643 14.8051677 73.7772459 14.8051677 73.7772459 0.499285322"></polygon>
                    <path d="M110.07847,0.499285322 L116.352756,0.499285322 C118.145409,0.499285322 119.489899,0.946344145 120.386225,1.84046179 C121.05847,2.51105003 121.506634,3.62869709 121.506634,4.96987356 L121.506634,4.96987356 C121.506634,7.20516767 120.162144,8.76987356 118.145409,9.21693238 L121.954797,14.5816383 L119.041736,14.5816383 L115.45643,9.6639912 L112.319287,9.6639912 L112.319287,14.5816383 L109.854389,14.5816383 L109.854389,0.499285322 L110.07847,0.499285322 Z M116.128674,7.6522265 C117.921328,7.6522265 119.041736,6.75810885 119.041736,5.19340297 L119.041736,5.19340297 C119.041736,3.62869709 117.921328,2.73457944 116.128674,2.73457944 L112.543368,2.73457944 L112.543368,7.42869709 L116.128674,7.42869709 L116.128674,7.6522265 Z"></path>
                    <path d="M143.242552,7.6522265 L143.242552,7.6522265 C143.242552,3.62869709 146.379695,0.27575591 150.637246,0.27575591 C153.102144,0.27575591 154.670715,0.946344145 156.015205,2.28752062 L154.446634,4.07575591 C153.326225,3.18163826 152.205817,2.51105003 150.413164,2.51105003 C147.724185,2.51105003 145.70745,4.74634415 145.70745,7.42869709 L145.70745,7.42869709 C145.70745,10.3345794 147.724185,12.5698736 150.637246,12.5698736 C151.981736,12.5698736 153.102144,12.1228147 153.99847,11.4522265 L153.99847,8.76987356 L150.413164,8.76987356 L150.413164,6.53457944 L156.463368,6.53457944 L156.463368,12.5698736 C155.118879,13.6875206 153.102144,14.8051677 150.637246,14.8051677 C146.155613,15.0286971 143.242552,11.8992853 143.242552,7.6522265 L143.242552,7.6522265 Z"></path>
                    <polygon points="182.680919 9.21693238 177.078879 0.722814733 179.99194 0.722814733 184.025409 6.98163826 188.058879 0.722814733 190.97194 0.722814733 185.369899 9.21693238 185.369899 14.8051677 182.680919 14.8051677"></polygon>
                </g>
            </g>
            <rect id="_x3C_Slice_x3E_" x="0" y="0" width="549" height="114"></rect>
        </g>
    </g>
</svg>