<?xml version="1.0" encoding="utf-8"?>
<!-- Generator: Adobe Illustrator 18.0.0, SVG Export Plug-In . SVG Version: 6.00 Build 0)  -->
<!DOCTYPE svg PUBLIC "-//W3C//DTD SVG 1.1//EN" "http://www.w3.org/Graphics/SVG/1.1/DTD/svg11.dtd">
<svg version="1.1" id="Layer_1" xmlns="http://www.w3.org/2000/svg" xmlns:xlink="http://www.w3.org/1999/xlink" x="0px" y="0px"
	 viewBox="0 0 160 160" enable-background="new 0 0 160 160" xml:space="preserve">
<g>
	<path fill="#FFFFFF" d="M160.4,78.4c0.8,45.4-36.1,82.3-81.5,81.5c-42.8-0.8-77.7-35.7-78.5-78.5C-0.4,36,36.6-1,82-0.1
		C124.7,0.7,159.6,35.6,160.4,78.4z"/>
	<g>
		<path fill="none" stroke="#00A3DD" stroke-width="2" stroke-linecap="round" stroke-linejoin="round" stroke-miterlimit="10" d="
			M67.6,99.4c0,0-9.8-3.3-9.8-19.5c-5.4,0-5.4-13,0-13c0-2.2-9.8-26.1,6.5-22.8c3.3-13,39.1-13,42.3,0c2.3,9-3.3,21.2-3.3,22.8
			c5.4,0,5.4,13,0,13c0,16.3-9.8,19.5-9.8,19.5v16.3c16.1,6,32.1,11.1,40.3,16.8c13.3-13.5,21.6-32.1,21.6-52.6
			C155.5,38.5,122,5,80.6,5C39.3,5,5.7,38.5,5.7,79.9c0,20.5,8.3,39.1,21.7,52.7c8.7-6,25.7-11.4,40.2-16.9V99.4z"/>
		<path fill="none" stroke="#00A3DD" stroke-width="2" stroke-linecap="round" stroke-linejoin="round" stroke-miterlimit="10" d="
			M27.4,132.5c13.6,13.7,32.4,22.2,53.2,22.2c20.9,0,39.7-8.5,53.3-22.3"/>
	</g>
</g>
</svg>
